<?xml version="1.0" encoding="UTF-8" standalone="no"?>
<svg width="692px" height="292px" viewBox="0 0 692 292" version="1.1" xmlns="http://www.w3.org/2000/svg" xmlns:xlink="http://www.w3.org/1999/xlink" xmlns:sketch="http://www.bohemiancoding.com/sketch/ns">
    <!-- Generator: Sketch 3.5.2 (25235) - http://www.bohemiancoding.com/sketch -->
    <title>ally-logo</title>
    <desc>Created with Sketch.</desc>
    <defs></defs>
    <g id="ally-final" stroke="none" stroke-width="1" fill="none" fill-rule="evenodd" sketch:type="MSPage">
        <g id="ally-logo" sketch:type="MSLayerGroup">
            <path d="M435.990944,40 L355.990944,40 L483.990944,232 L483.990944,292 L563.990944,292 L563.990944,232 L691.990944,40 L611.990944,40 C611.990944,88.601058 572.592002,128 523.990944,128 C475.389886,128 435.990944,88.601058 435.990944,40 Z M523.990944,80 C546.082334,80 563.990944,62.09139 563.990944,40 C563.990944,17.90861 546.082334,0 523.990944,0 C501.899554,0 483.990944,17.90861 483.990944,40 C483.990944,62.09139 501.899554,80 523.990944,80 Z" id="Y" fill="#00C7D1" sketch:type="MSShapeGroup"></path>
            <rect id="L" fill="#7ED321" sketch:type="MSShapeGroup" transform="translate(395.990944, 166.000000) scale(-1, 1) rotate(-180.000000) translate(-395.990944, -166.000000) " x="355.990944" y="40" width="80" height="252"></rect>
            <rect id="L" fill="#7ED321" sketch:type="MSShapeGroup" x="256" y="40" width="80" height="252"></rect>
            <path d="M336,292 L168,40 L0,292 L82.3486447,292 C97.2321861,258.98283 130.432129,236 169,236 C207.567871,236 240.767814,258.98283 255.651336,291.999997 L336,292 Z M168,216 C190.09139,216 208,198.09139 208,176 C208,153.90861 190.09139,136 168,136 C145.90861,136 128,153.90861 128,176 C128,198.09139 145.90861,216 168,216 L168,216 Z" id="A" fill="#4990E2" sketch:type="MSShapeGroup"></path>
            <path d="M435.990944,160 L355.990944,40 L395.990944,40 L435.990944,40 L435.990944,160 L435.990944,160 Z" id="rightTriangle" fill="#009B00" sketch:type="MSShapeGroup"></path>
            <path d="M336,292 L256,172 L296,172 L336,172 L336,292 L336,292 Z" id="leftTriangle" fill="#005212" sketch:type="MSShapeGroup" transform="translate(296.000000, 232.000000) rotate(-180.000000) translate(-296.000000, -232.000000) "></path>
        </g>
    </g>
</svg>