<?xml version="1.0" encoding="UTF-8"?>
<svg width="123px" height="126px" viewBox="0 0 123 126" version="1.1" xmlns="http://www.w3.org/2000/svg" xmlns:xlink="http://www.w3.org/1999/xlink">
    <!-- Generator: Sketch 42 (36781) - http://www.bohemiancoding.com/sketch -->
    <title>confirm</title>
    <desc>Created with Sketch.</desc>
    <defs></defs>
    <g id="03.Survey" stroke="none" stroke-width="1" fill="none" fill-rule="evenodd">
        <g id="1280-userRegisteredforWebinar" transform="translate(-890.000000, -242.000000)">
            <g id="confirm" transform="translate(890.000000, 242.000000)">
                <path d="M95.8465739,0.00285622816 C110.307724,0.00285622816 122.139574,11.9344329 122.139574,26.5174712 C122.139574,41.1005094 110.307724,53.0320861 95.8465739,53.0320861 C81.3854238,53.0320861 69.5535737,41.1005094 69.5535737,26.5174712 C69.5535737,11.9344329 81.3854238,0.00285622816 95.8465739,0.00285622816 L95.8465739,0.00285622816 Z M89.7249242,41.0554679 L77.4816247,28.7089739 L81.7973877,24.3568347 L89.7249242,32.3203234 L109.89576,11.9794744 L114.211523,16.3624798 L89.7249242,41.0554679 L89.7249242,41.0554679 Z" id="Shape" fill="#FFFFFF"></path>
                <path d="M54.36,59 C47.716,59 42.28,64.4818182 42.28,71.1818182 C42.28,77.8818182 47.716,83.3636364 54.36,83.3636364 C61.004,83.3636364 66.44,77.8818182 66.44,71.1818182 C66.44,64.4818182 61.004,59 54.36,59 L54.36,59 Z M55.8088571,28.5454767 C55.7773164,27.8734059 55.7613615,27.1972765 55.7613615,26.5174712 C55.7613615,23.0180541 56.1841427,19.6160445 56.9793632,16.3636364 L12.08,16.3636364 C5.3756,16.3636364 0,21.8454545 0,28.5454545 L0,113.818182 C0,120.518182 5.3756,126 12.08,126 L96.64,126 C103.3444,126 108.72,120.518182 108.72,113.818182 L108.72,65.8657615 C104.675097,67.2989386 100.344249,68.0772769 95.8465739,68.0772769 C92.4506788,68.0772769 89.1498876,67.6335653 85.9954719,66.7992994 L85.768,66.9790909 C85.9492,68.38 86.07,69.7809091 86.07,71.1818182 L86.07,71.1818182 C86.07,72.5827273 85.9492,73.9836364 85.768,75.3236364 L94.7072,82.3890909 C95.4924,83.0590909 95.734,84.2163636 95.1904,85.13 L86.7344,99.87 C86.1908,100.783636 85.1036,101.149091 84.1372,100.783636 L73.6276,96.52 C71.4532,98.2254545 69.0372,99.6263636 66.5004,100.722727 L64.93,111.990909 C64.7488,113.026364 63.8428,113.818182 62.816,113.818182 L45.904,113.818182 C44.8772,113.818182 43.9712,113.026364 43.79,112.051818 L42.2196,100.783636 C39.6224,99.6872727 37.2668,98.2863636 35.0924,96.5809091 L24.5828,100.844545 C23.6164,101.21 22.5292,100.844545 21.9856,99.9309091 L13.5296,85.1909091 C12.986,84.2772727 13.2276,83.12 14.0128,82.45 L22.952,75.3845455 C22.7708,73.9836364 22.65,72.5827273 22.65,71.1818182 C22.65,69.7809091 22.7708,68.38 22.952,67.04 L14.0128,59.9745455 C13.2276,59.3045455 12.986,58.1472727 13.5296,57.2336364 L21.9856,42.4936364 C22.5292,41.58 23.6164,41.2145455 24.5828,41.58 L35.0924,45.8436364 C37.2668,44.1381818 39.6828,42.7372727 42.2196,41.6409091 L43.79,30.3727273 C43.9712,29.3372727 44.8772,28.5454545 45.904,28.5454545 L55.808856,28.5454545 Z" id="Shape" fill="#00C7D1"></path>
            </g>
        </g>
    </g>
</svg>