<?xml version="1.0" encoding="UTF-8"?>
<svg width="27px" height="22px" viewBox="0 0 27 22" version="1.1" xmlns="http://www.w3.org/2000/svg" xmlns:xlink="http://www.w3.org/1999/xlink">
    <!-- Generator: Sketch 51.2 (57519) - http://www.bohemiancoding.com/sketch -->
    <title>forum-series-twitter-logo</title>
    <desc>Created with Sketch.</desc>
    <defs></defs>
    <g id="Page-1" stroke="none" stroke-width="1" fill="none" fill-rule="evenodd">
        <g id="01-spaceBbWorld18-AllyValidate" transform="translate(-1224.000000, -797.000000)" fill="#4A90E2">
            <g id="9/5" transform="translate(297.000000, 758.000000)">
                <path d="M951.100154,44.6219654 C950.959077,53.9330423 945.013692,60.3016577 936.125846,60.7047346 C932.457846,60.8659654 929.817692,59.6970423 927.5,58.2258115 C930.200615,58.6490423 933.546154,57.5808885 935.36,56.0491962 C932.699692,55.7670423 931.147846,54.4167346 930.402154,52.2602731 C931.168,52.3811962 931.974154,52.3408885 932.699692,52.1998115 C930.301385,51.3936577 928.588308,49.9022731 928.507692,46.7985808 C929.172769,47.1210423 929.878154,47.4031962 930.805231,47.4636577 C929.011538,46.4358115 927.701538,42.70735 929.213077,40.2485808 C931.873385,43.1708885 935.077846,45.5490423 940.338,45.8715038 C939.007846,40.2284269 946.484923,37.1650423 949.608769,40.9338115 C950.938923,40.6919654 952.007077,40.2082731 953.055077,39.6439654 C952.631846,40.9338115 951.805538,41.8810423 950.797846,42.6065808 C951.886154,42.4655038 952.873692,42.2035038 953.7,41.7802731 C953.196154,42.8484269 952.067538,43.8158115 951.100154,44.6219654 L951.100154,44.6219654 Z" id="forum-series-twitter-logo"></path>
            </g>
        </g>
    </g>
</svg>