<?xml version="1.0" encoding="UTF-8" standalone="no"?>
<svg width="80px" height="11px" viewBox="0 0 80 11" version="1.1" xmlns="http://www.w3.org/2000/svg" xmlns:xlink="http://www.w3.org/1999/xlink">
    <!-- Generator: Sketch 3.6.1 (26313) - http://www.bohemiancoding.com/sketch -->
    <title>FRONTEER</title>
    <desc>Created with Sketch.</desc>
    <defs></defs>
    <g id="keyWidths" stroke="none" stroke-width="1" fill="none" fill-rule="evenodd">
        <g id="1280" transform="translate(-100.000000, -4352.000000)" fill="#FFFFFF">
            <g id="footer" transform="translate(100.000000, 4228.000000)">
                <g id="footerContent" transform="translate(0.000000, 111.000000)">
                    <g id="Group" transform="translate(0.000000, 5.000000)">
                        <path d="M1.54081898,9.4414267 L1.54081898,12.8236186 L5.45616939,12.8236186 L5.45616939,13.3348801 L1.54081898,13.3348801 L1.54081898,18.0083352 L0.979618752,18.0083352 L0.979618752,8.93671978 L6.09567663,8.93671978 L6.09567663,9.4414267 L1.54081898,9.4414267 Z M15.8732786,18.0083352 L13.5501707,14.0362261 L11.3314722,14.0362261 L11.3314722,18.0083352 L10.7702719,18.0083352 L10.7702719,8.93671978 L13.0933798,8.93671978 C13.5806259,8.93671978 14.0069598,8.98150934 14.3723943,9.0710898 C14.7378288,9.16067027 15.0434406,9.30377837 15.2892389,9.50041842 C15.5350371,9.69705846 15.7188392,9.95268669 15.8406507,10.2673108 C15.9624622,10.5819348 16.0233671,10.9642847 16.0233671,11.414372 C16.0233671,11.8032823 15.984214,12.1397502 15.9059066,12.4237858 C15.8275992,12.7078214 15.7090522,12.9514329 15.5502622,13.1546277 C15.3914722,13.3578224 15.1924439,13.522779 14.9531713,13.6495026 C14.7138987,13.7762262 14.4333014,13.8723599 14.1113709,13.9379066 L16.5715161,18.0083352 L15.8732786,18.0083352 Z M15.4099622,11.4012627 C15.4099622,11.0691595 15.3729842,10.779666 15.2990272,10.5327735 C15.2250703,10.285881 15.0989102,10.0815969 14.9205434,9.91991509 C14.7421765,9.75823327 14.5039951,9.63806616 14.2059919,9.55941014 C13.9079888,9.48075412 13.5327714,9.4414267 13.0803287,9.4414267 L11.3314722,9.4414267 L11.3314722,13.5249646 L13.0803287,13.5249646 C13.528421,13.5249646 13.9014632,13.4856371 14.1994663,13.4069811 C14.4974695,13.3283251 14.7367385,13.2037883 14.9172806,13.0333669 C15.0978226,12.8629455 15.2250703,12.6433674 15.2990272,12.374626 C15.3729842,12.1058846 15.4099622,11.7814334 15.4099622,11.4012627 L15.4099622,11.4012627 Z M27.5759279,13.4725275 C27.5759279,14.1979108 27.5150231,14.8522753 27.3932116,15.4356408 C27.2714001,16.0190062 27.0745469,16.5149687 26.8026462,16.923543 C26.5307455,17.3321173 26.1751048,17.6467367 25.7357132,17.8674105 C25.2963217,18.0880843 24.7568788,18.1984196 24.1173684,18.1984196 C23.4822084,18.1984196 22.9449407,18.0869919 22.5055491,17.8641332 C22.0661576,17.6412745 21.7094293,17.3255627 21.4353534,16.9169884 C21.1612775,16.5084141 20.9633367,16.0124516 20.8415252,15.4290861 C20.7197137,14.8457207 20.6588089,14.193541 20.6588089,13.4725275 C20.6588089,12.7558838 20.7197137,12.1058889 20.8415252,11.5225234 C20.9633367,10.939158 21.1612775,10.4421031 21.4353534,10.0313439 C21.7094293,9.62058468 22.0661576,9.30378047 22.5055491,9.08092175 C22.9449407,8.85806304 23.4822084,8.74663535 24.1173684,8.74663535 C24.7568788,8.74663535 25.2963217,8.85697061 25.7357132,9.07764444 C26.1751048,9.29831826 26.5307455,9.61293762 26.8026462,10.0215119 C27.0745469,10.4300863 27.2714001,10.9260487 27.3932116,11.5094142 C27.5150231,12.0927796 27.5759279,12.7471442 27.5759279,13.4725275 L27.5759279,13.4725275 Z M26.962523,13.4725275 C26.962523,12.8039513 26.9135816,12.2096703 26.8156974,11.6896666 C26.7178131,11.169663 26.5568503,10.7315992 26.3328042,10.3754622 C26.108758,10.0193253 25.8151097,9.74840305 25.4518503,9.56268746 C25.088591,9.37697186 24.6437681,9.28411545 24.1173684,9.28411545 C23.5866182,9.28411545 23.1407078,9.374787 22.7796237,9.55613282 C22.4185395,9.73747864 22.1259788,10.0051236 21.9019326,10.3590757 C21.6778864,10.7130277 21.5169236,11.1510915 21.4190394,11.6732801 C21.3211551,12.1954686 21.2722138,12.7952118 21.2722138,13.4725275 C21.2722138,14.1323641 21.3211551,14.7222754 21.4190394,15.242279 C21.5169236,15.7622827 21.6767989,16.2014389 21.8986698,16.5597607 C22.1205408,16.9180826 22.4131015,17.1911897 22.7763609,17.3790902 C23.1396202,17.5669907 23.5866182,17.6609395 24.1173684,17.6609395 C24.6437681,17.6609395 25.088591,17.5680831 25.4518503,17.3823675 C25.8151097,17.1966519 26.108758,16.9246372 26.3328042,16.5663154 C26.5568503,16.2079935 26.7178131,15.7699298 26.8156974,15.252111 C26.9135816,14.7342922 26.962523,14.1411036 26.962523,13.4725275 L26.962523,13.4725275 Z M37.9473581,18.0083352 L33.0662212,9.59218332 L33.0662212,18.0083352 L32.505021,18.0083352 L32.505021,8.93671978 L33.3076678,8.93671978 L38.0256651,17.0710223 L38.0256651,8.93671978 L38.5868653,8.93671978 L38.5868653,18.0083352 L37.9473581,18.0083352 Z M46.6025596,9.4414267 L46.6025596,18.0083352 L46.0413594,18.0083352 L46.0413594,9.4414267 L42.8307721,9.4414267 L42.8307721,8.93671978 L49.8066214,8.93671978 L49.8066214,9.4414267 L46.6025596,9.4414267 Z M54.0505281,18.0083352 L54.0505281,8.93671978 L59.2253163,8.93671978 L59.2253163,9.4414267 L54.6117284,9.4414267 L54.6117284,12.9088288 L58.5923346,12.9088288 L58.5923346,13.4200904 L54.6117284,13.4200904 L54.6117284,17.4970736 L59.2253163,17.4970736 L59.2253163,18.0083352 L54.0505281,18.0083352 Z M64.1348326,18.0083352 L64.1348326,8.93671978 L69.3096207,8.93671978 L69.3096207,9.4414267 L64.6960328,9.4414267 L64.6960328,12.9088288 L68.6766391,12.9088288 L68.6766391,13.4200904 L64.6960328,13.4200904 L64.6960328,17.4970736 L69.3096207,17.4970736 L69.3096207,18.0083352 L64.1348326,18.0083352 Z M79.3221438,18.0083352 L76.9990358,14.0362261 L74.7803373,14.0362261 L74.7803373,18.0083352 L74.2191371,18.0083352 L74.2191371,8.93671978 L76.542245,8.93671978 C77.029491,8.93671978 77.4558249,8.98150934 77.8212594,9.0710898 C78.186694,9.16067027 78.4923058,9.30377837 78.738104,9.50041842 C78.9839022,9.69705846 79.1677043,9.95268669 79.2895158,10.2673108 C79.4113273,10.5819348 79.4722322,10.9642847 79.4722322,11.414372 C79.4722322,11.8032823 79.4330791,12.1397502 79.3547717,12.4237858 C79.2764643,12.7078214 79.1579174,12.9514329 78.9991273,13.1546277 C78.8403373,13.3578224 78.641309,13.522779 78.4020364,13.6495026 C78.1627638,13.7762262 77.8821665,13.8723599 77.5602361,13.9379066 L80.0203812,18.0083352 L79.3221438,18.0083352 Z M78.8588273,11.4012627 C78.8588273,11.0691595 78.8218494,10.779666 78.7478924,10.5327735 C78.6739354,10.285881 78.5477753,10.0815969 78.3694085,9.91991509 C78.1910416,9.75823327 77.9528602,9.63806616 77.654857,9.55941014 C77.3568539,9.48075412 76.9816365,9.4414267 76.5291938,9.4414267 L74.7803373,9.4414267 L74.7803373,13.5249646 L76.5291938,13.5249646 C76.9772861,13.5249646 77.3503283,13.4856371 77.6483315,13.4069811 C77.9463346,13.3283251 78.1856036,13.2037883 78.3661457,13.0333669 C78.5466878,12.8629455 78.6739354,12.6433674 78.7478924,12.374626 C78.8218494,12.1058846 78.8588273,11.7814334 78.8588273,11.4012627 L78.8588273,11.4012627 Z" id="FRONTEER"></path>
                    </g>
                </g>
            </g>
        </g>
    </g>
</svg>