<?xml version="1.0" encoding="UTF-8" standalone="no"?>
<svg width="101px" height="37px" viewBox="0 0 101 37" version="1.1" xmlns="http://www.w3.org/2000/svg" xmlns:xlink="http://www.w3.org/1999/xlink">
    <!-- Generator: Sketch 3.6.1 (26313) - http://www.bohemiancoding.com/sketch -->
    <title>ally-brandmarkHorizontal</title>
    <desc>Created with Sketch.</desc>
    <defs></defs>
    <g id="keyWidths" stroke="none" stroke-width="1" fill="none" fill-rule="evenodd">
        <g id="1024" transform="translate(-100.000000, -68.000000)" fill="#FFFFFF">
            <g id="navigation" transform="translate(100.000000, 68.000000)">
                <g id="ally-brandmarkHorizontal">
                    <path d="M39.8354037,29.7881356 L19.9177019,0 L0,29.7881356 L9.76306997,29.7881356 C11.5276291,25.8852787 15.4637397,23.1685499 20.0362596,23.1685499 C24.6087796,23.1685499 28.5448901,25.8852787 30.309447,29.7881352 L39.8354037,29.7881356 Z M19.9177019,20.8044122 C22.5368073,20.8044122 24.6600118,18.6874911 24.6600118,16.0761367 C24.6600118,13.4647822 22.5368073,11.3478612 19.9177019,11.3478612 C17.2985964,11.3478612 15.1753919,13.4647822 15.1753919,16.0761367 C15.1753919,18.6874911 17.2985964,20.8044122 19.9177019,20.8044122 L19.9177019,20.8044122 Z" id="A"></path>
                    <path d="M46.5734655,21.949847 C46.8833136,21.2817505 47.2630237,20.7400588 47.7126072,20.3247555 C48.1621907,19.9094523 48.7332747,19.5543432 49.4258763,19.2594178 C50.118478,18.9644923 50.7320895,18.7478156 51.2667294,18.6093812 C51.8013692,18.4709467 52.4362445,18.3656178 53.1713743,18.2933911 C53.9065041,18.2211645 54.4289852,18.1790329 54.7388333,18.1669951 C55.0486814,18.1549574 55.4162408,18.1489386 55.8415225,18.1489386 L58.8306304,18.3295043 C58.8306304,16.6803291 58.3719406,15.5036543 57.4545472,14.7994444 C56.5371538,14.0952346 55.1793105,13.7431349 53.3809764,13.7431349 C51.363926,13.7431349 49.5473929,14.038056 47.9313224,14.627907 L47.9313224,12.0458171 C49.7661092,11.4078151 51.6312452,11.0888188 53.5267865,11.0888188 C56.1392313,11.0888188 58.1319499,11.7418583 59.5050023,13.0479569 C60.8780547,14.3540555 61.5645705,16.2650236 61.5645705,18.7809186 L61.5645705,24.3242863 C61.5645705,25.5039882 61.2881416,26.5121368 60.7352754,27.3487621 C60.1824091,28.1853875 59.4715918,28.7902766 58.6028021,29.1634476 C57.7340123,29.5366187 56.9199138,29.7954269 56.1604822,29.9398802 C55.4010506,30.0843335 54.6507434,30.1565591 53.9095382,30.1565591 C53.3384456,30.1565591 52.7521732,30.1204463 52.1507033,30.0482197 C51.5492335,29.975993 50.868793,29.8104761 50.1093614,29.5516639 C49.3499298,29.2928518 48.690753,28.9618179 48.1318113,28.5585525 C47.5728697,28.155287 47.0959538,27.5774825 46.7010493,26.8251215 C46.3061449,26.0727606 46.1086957,25.2030444 46.1086957,24.2159468 C46.1086957,23.3733026 46.2636174,22.6179435 46.5734655,21.949847 Z M48.787957,24.2159468 C48.787957,26.5271996 50.4769076,27.6828087 53.8548594,27.6828087 L53.9095382,27.6828087 C57.2145845,27.6828087 58.8670829,26.5633124 58.8670829,24.3242863 L58.8670829,20.7671415 C58.0408213,20.6226882 56.9351055,20.5504627 55.5499022,20.5504627 C51.0419162,20.5504627 48.787957,21.7722785 48.787957,24.2159468 L48.787957,24.2159468 Z M67.0626898,29.7881356 L67.0626898,4.38983051 L69.7419512,4.38983051 L69.7419512,29.7881356 L67.0626898,29.7881356 Z M76.8478261,29.7881356 L76.8478261,4.38983051 L79.5270874,4.38983051 L79.5270874,29.7881356 L76.8478261,29.7881356 Z M84.5599067,11.4138371 L87.4396569,11.4138371 L92.7435008,26.0216041 L98.1202497,11.4138371 L101,11.4138371 L93.3814202,31.6733112 C92.0569714,35.2244548 90.1007049,37 87.512562,37 C86.9171676,37 86.3339329,36.8916616 85.7628403,36.6749817 L85.7628403,34.2373444 C86.2610275,34.4540244 86.7956593,34.5623627 87.3667519,34.5623627 C87.8406372,34.5623627 88.3084401,34.390827 88.7701745,34.0477504 C89.2319089,33.7046738 89.611619,33.2923862 89.9093162,32.8108752 C90.2070134,32.3293642 90.4804047,31.8418417 90.7294982,31.3482929 C90.9785918,30.8547441 91.1517396,30.4334283 91.2489469,30.0843328 L91.4312095,29.5787488 L84.5599067,11.4138371 Z" id="ally"></path>
                </g>
            </g>
        </g>
    </g>
</svg>