<?xml version="1.0" encoding="UTF-8"?>
<svg width="315px" height="152px" viewBox="0 0 315 152" version="1.1" xmlns="http://www.w3.org/2000/svg" xmlns:xlink="http://www.w3.org/1999/xlink">
    <!-- Generator: Sketch 41.2 (35397) - http://www.bohemiancoding.com/sketch -->
    <title>logo</title>
    <desc>Created with Sketch.</desc>
    <defs></defs>
    <g id="Page-1" stroke="none" stroke-width="1" fill="none" fill-rule="evenodd">
        <g id="logo">
            <g id="Group-3" transform="translate(193.000000, 45.514489)" fill="#00C7D1">
                <path d="M60.9159393,0.487871079 C52.9132633,0.487871079 46.4256482,6.97076367 46.4256482,14.9676142 C46.4256482,22.9662977 52.9132633,29.4491902 60.9159393,29.4491902 C68.9186153,29.4491902 75.4062304,22.9662977 75.4062304,14.9676142 C75.4062304,6.97076367 68.9186153,0.487871079 60.9159393,0.487871079 L60.9159393,0.487871079 Z M92.796414,14.9676142 C92.796414,32.5614186 78.5225601,46.824882 60.9159393,46.824882 C43.30565,46.824882 29.0336304,32.5614186 29.0336304,14.9676142 L0.0493797153,14.9676142 L46.4256482,84.4740471 L46.4256482,106.197328 L75.4062304,106.197328 L75.4062304,84.4740471 L121.77883,14.9676142 L92.796414,14.9676142 Z" id="Fill-1"></path>
            </g>
            <g id="Group-6" transform="translate(0.000000, 60.066590)" fill="#FFFFFF">
                <path d="M0.000917107033,91.6448604 L29.8215694,91.6448604 C35.2123245,79.6926572 47.2392662,71.3695542 61.2123089,71.3695542 C75.1853517,71.3695542 87.2122933,79.6926572 92.6030485,91.6448604 L121.71386,91.6448604 L60.8509688,0.416979945 L0.000917107033,91.6448604 Z M46.3588434,49.6499395 C46.3588434,41.653089 52.8482928,35.1701964 60.8509688,35.1701964 C68.8536447,35.1701964 75.3412599,41.653089 75.3412599,49.6499395 C75.3412599,57.6467901 68.8536447,64.1296827 60.8509688,64.1296827 C52.8482928,64.1296827 46.3588434,57.6467901 46.3588434,49.6499395 L46.3588434,49.6499395 Z" id="Fill-4"></path>
            </g>
            <polygon id="Fill-7" fill="#7ED321" points="121.714777 151.710534 150.699028 151.710534 150.699028 60.4826532 121.714777 60.4826532"></polygon>
            <polygon id="Fill-9" fill="#7ED321" points="164.063111 151.710534 193.049196 151.710534 193.049196 60.4826532 164.063111 60.4826532"></polygon>
            <path d="M100.167898,6.59179853 C100.167898,8.93421773 98.8601029,10.1365863 97.4422554,10.8660721 C99.674494,11.6303826 101.229907,12.9115649 101.229907,15.5252502 C101.229907,18.9600652 98.42356,20.7837797 94.1718518,20.7837797 L85.340111,20.7837797 L85.340111,1.71450783 L93.8948854,1.71450783 C97.7430666,1.71450783 100.167898,3.59504156 100.167898,6.59179853 M96.8167884,7.13799643 C96.8167884,5.58188226 95.6153782,4.68193873 93.4620109,4.68193873 L88.6398621,4.68193873 L88.6398621,9.75168171 L93.2180604,9.75168171 C95.3677593,9.75168171 96.8167884,8.90855743 96.8167884,7.13799643 M97.8806326,15.1696717 C97.8806326,13.5384095 96.598517,12.5853125 93.9535803,12.5853125 L88.6398621,12.5853125 L88.6398621,17.8145159 L94.1956965,17.8145159 C96.4884641,17.8145159 97.8806326,16.9145724 97.8806326,15.1696717" id="Fill-10" fill="#FFFFFF"></path>
            <polygon id="Fill-11" fill="#FFFFFF" points="103.464347 20.7843295 106.762264 20.7843295 106.762264 0.901259471 103.464347 0.901259471"></polygon>
            <path d="M118.511872,20.7841463 L118.511872,19.0117524 C117.528734,20.182962 116.028347,21.0829055 113.8493,21.0829055 C111.121824,21.0829055 108.72634,19.5267914 108.72634,16.64184 L108.72634,16.5868536 C108.72634,13.4874554 111.206198,11.9606673 114.557307,11.9606673 C116.303479,11.9606673 117.418681,12.2026074 118.539386,12.556353 L118.539386,12.2026074 C118.539386,10.2121009 117.282949,9.12886947 114.992016,9.12886947 C113.387078,9.12886947 112.187502,9.47528358 110.879708,10.0214815 L109.977274,7.3821359 C111.562035,6.67281177 113.115615,6.18343311 115.45974,6.18343311 C119.709614,6.18343311 121.780442,8.41587959 121.780442,12.2575937 L121.780442,20.7841463 L118.511872,20.7841463 Z M118.590744,14.6806596 C117.748839,14.35624 116.574942,14.1106343 115.296495,14.1106343 C113.223833,14.1106343 111.996744,14.9555914 111.996744,16.4255603 L111.996744,16.4805467 C111.996744,17.8405428 113.223833,18.6048533 114.779247,18.6048533 C116.956459,18.6048533 118.590744,17.3786573 118.590744,15.5769374 L118.590744,14.6806596 Z" id="Fill-12" fill="#FFFFFF"></path>
            <path d="M130.9948,21.1098488 C126.713744,21.1098488 123.555227,17.7575134 123.555227,13.6481989 C123.555227,9.53521872 126.713744,6.10223658 131.020479,6.10223658 C133.747955,6.10223658 135.437266,7.10848708 136.77074,8.5821217 L134.725591,10.7834092 C133.716773,9.72217236 132.654763,8.98535505 130.9948,8.98535505 C128.593813,8.98535505 126.849476,11.0601739 126.849476,13.5932126 C126.849476,16.1830704 128.621327,18.2487249 131.156211,18.2487249 C132.707956,18.2487249 133.858008,17.5137405 134.892505,16.4525036 L136.880793,18.4118511 C135.464779,19.9917927 133.801147,21.1098488 130.9948,21.1098488" id="Fill-13" fill="#FFFFFF"></path>
            <polygon id="Fill-14" fill="#FFFFFF" points="152.005905 20.7841463 148.192574 20.7841463 143.858326 14.5706869 141.842525 16.6711661 141.842525 20.7841463 138.544608 20.7841463 138.544608 0.899243304 141.842525 0.899243304 141.842525 12.7744656 147.809223 6.4015457 151.815147 6.4015457 146.092399 12.2575937"></polygon>
            <path d="M161.957984,21.0829055 C159.586345,21.0829055 158.085958,19.8842027 157.078974,18.548034 L157.078974,20.7841463 L153.781058,20.7841463 L153.781058,0.899243304 L157.078974,0.899243304 L157.078974,8.79895127 C158.142819,7.29782347 159.637703,6.10278644 161.957984,6.10278644 C165.364119,6.10278644 168.663871,8.79895127 168.663871,13.5919295 C168.663871,18.3849078 165.391633,21.0829055 161.957984,21.0829055 M161.196785,8.96024461 C158.959044,8.96024461 156.996435,10.785792 156.996435,13.5919295 C156.996435,16.3962342 158.959044,18.2217816 161.196785,18.2217816 C163.454703,18.2217816 165.309093,16.4530535 165.309093,13.5919295 C165.309093,10.7601317 163.429024,8.96024461 161.196785,8.96024461" id="Fill-15" fill="#FFFFFF"></path>
            <path d="M177.522024,21.1098488 C173.13275,21.1098488 169.889859,17.7575134 169.889859,13.6481989 C169.889859,9.50772553 173.160263,6.10223658 177.573382,6.10223658 C181.992004,6.10223658 185.234894,9.45273917 185.234894,13.5932126 C185.234894,17.7061928 181.962656,21.1098488 177.522024,21.1098488 M177.522024,8.98535505 C174.877087,8.98535505 173.185942,11.0601739 173.185942,13.5932126 C173.185942,16.1537443 175.009151,18.2487249 177.573382,18.2487249 C180.243998,18.2487249 181.935143,16.1830704 181.935143,13.6481989 C181.935143,11.0858342 180.108266,8.98535505 177.522024,8.98535505" id="Fill-16" fill="#FFFFFF"></path>
            <path d="M196.025392,20.7841463 L196.025392,19.0117524 C195.047756,20.182962 193.549203,21.0829055 191.364654,21.0829055 C188.64268,21.0829055 186.241694,19.5267914 186.241694,16.64184 L186.241694,16.5868536 C186.241694,13.4874554 188.72522,11.9606673 192.076329,11.9606673 C193.818833,11.9606673 194.937703,12.2026074 196.058408,12.556353 L196.058408,12.2026074 C196.058408,10.2121009 194.801971,9.12886947 192.511038,9.12886947 C190.906101,9.12886947 189.702856,9.47528358 188.395062,10.0214815 L187.496297,7.3821359 C189.077389,6.67281177 190.630968,6.18343311 192.975094,6.18343311 C197.228636,6.18343311 199.299464,8.41587959 199.299464,12.2575937 L199.299464,20.7841463 L196.025392,20.7841463 Z M196.109766,14.6806596 C195.266027,14.35624 194.09213,14.1106343 192.810015,14.1106343 C190.737353,14.1106343 189.513932,14.9555914 189.513932,16.4255603 L189.513932,16.4805467 C189.513932,17.8405428 190.737353,18.6048533 192.290932,18.6048533 C194.471813,18.6048533 196.109766,17.3786573 196.109766,15.5769374 L196.109766,14.6806596 Z" id="Fill-17" fill="#FFFFFF"></path>
            <path d="M205.157027,20.7841463 L201.862778,20.7841463 L201.862778,6.4015457 L205.157027,6.4015457 L205.157027,9.64390844 C206.055792,7.49394151 207.719424,6.02030689 210.256142,6.1321125 L210.256142,9.61641525 L210.063549,9.61641525 C207.180165,9.61641525 205.157027,11.4951161 205.157027,15.3075042 L205.157027,20.7841463 Z" id="Fill-18" fill="#FFFFFF"></path>
            <path d="M222.196875,20.7841463 L222.196875,18.3849078 C221.134866,19.8842027 219.634478,21.0829055 217.290353,21.0829055 C213.906228,21.0829055 210.613814,18.3849078 210.613814,13.5937624 C210.613814,8.79711839 213.853036,6.10278644 217.290353,6.10278644 C219.658323,6.10278644 221.162379,7.29965635 222.196875,8.63215929 L222.196875,0.899243304 L225.492958,0.899243304 L225.492958,20.7841463 L222.196875,20.7841463 Z M218.080899,8.96024461 C215.815645,8.96024461 213.935575,10.7051453 213.935575,13.5937624 C213.935575,16.4255603 215.846826,18.2217816 218.080899,18.2217816 C220.28379,18.2217816 222.248233,16.3962342 222.248233,13.5937624 C222.248233,10.785792 220.28379,8.96024461 218.080899,8.96024461 L218.080899,8.96024461 Z" id="Fill-19" fill="#FFFFFF"></path>
            <path d="M229.438719,2.0614718 C229.438719,2.70481229 228.919637,3.22534989 228.275828,3.22534989 C227.633853,3.22534989 227.112936,2.70481229 227.112936,2.0614718 C227.112936,1.41996419 227.633853,0.899426592 228.275828,0.899426592 C228.919637,0.899426592 229.438719,1.41996419 229.438719,2.0614718 L229.438719,2.0614718 Z M227.344047,2.0614718 C227.344047,2.58017652 227.764082,3.0072373 228.275828,3.0072373 C228.789408,3.0072373 229.207608,2.58017652 229.207608,2.0614718 C229.207608,1.53910132 228.79491,1.11937206 228.275828,1.11937206 C227.756745,1.11937206 227.344047,1.53910132 227.344047,2.0614718 L227.344047,2.0614718 Z M228.352865,1.44929026 C228.659178,1.44929026 228.79491,1.56292875 228.79491,1.82136467 C228.79491,1.94600043 228.756392,2.01931559 228.659178,2.09263074 C228.752723,2.14761711 228.761894,2.17694317 228.7729,2.40605303 C228.783905,2.63149713 228.785739,2.63333001 228.862776,2.6864835 L228.517944,2.6864835 C228.488597,2.61133546 228.483094,2.58567516 228.479425,2.47753531 C228.472089,2.22826378 228.466586,2.21543363 228.299672,2.21543363 L228.094241,2.21543363 L228.094241,2.6864835 L227.8026,2.6864835 L227.8026,1.44929026 L228.352865,1.44929026 Z M228.094241,1.97166074 L228.307009,1.97166074 C228.462918,1.97166074 228.505104,1.94233467 228.505104,1.83786058 C228.505104,1.7315536 228.466586,1.7058933 228.307009,1.7058933 L228.094241,1.7058933 L228.094241,1.97166074 Z" id="Fill-20" fill="#FFFFFF"></path>
        </g>
    </g>
</svg>