<?xml version="1.0" encoding="UTF-8"?>
<svg width="103px" height="37px" viewBox="0 0 103 37" version="1.1" xmlns="http://www.w3.org/2000/svg" xmlns:xlink="http://www.w3.org/1999/xlink">
    <!-- Generator: Sketch 42 (36781) - http://www.bohemiancoding.com/sketch -->
    <title>logo-footer</title>
    <desc>Created with Sketch.</desc>
    <defs></defs>
    <g id="Page-1" stroke="none" stroke-width="1" fill="none" fill-rule="evenodd">
        <g id="logo-footer" fill-rule="nonzero">
            <g id="Page-1">
                <g id="logo-footer">
                    <path d="M6.3190184e-05,30.1008716 L19.6992871,0.263561207 L39.4026184,30.1008716 L29.9787503,30.1008716 C28.2334374,26.1919491 24.3402902,23.4702164 19.8165049,23.4702164 C15.2930356,23.4702164 11.3995724,26.1919491 9.65425951,30.1008716 L6.3190184e-05,30.1008716 Z M15.0080479,16.3662164 C15.0080479,18.9820526 17.1081736,21.1022164 19.6992871,21.1022164 C22.2900847,21.1022164 24.3905264,18.9820526 24.3905264,16.3662164 C24.3905264,13.7503802 22.2900847,11.6302164 19.6992871,11.6302164 C17.1081736,11.6302164 15.0080479,13.7503802 15.0080479,16.3662164 Z" id="Fill-1" fill="#4990E2"></path>
                    <path d="M47.0437334,23.7392957 C47.0437334,26.4591147 49.4933009,28.0255543 52.351077,28.0255543 C56.2290586,28.0255543 59.4135279,25.6349078 59.4135279,22.2557871 L59.4135279,20.1949509 C57.8622089,19.7417009 55.7800923,19.2881319 53.2082518,19.2881319 C49.248439,19.2881319 47.0437334,21.0191578 47.0437334,23.7392957 M46.6762825,12.858744 L45.7372764,10.2623647 C48.0642549,9.19095948 50.3504758,8.48987328 53.4123561,8.48987328 C59.168666,8.48987328 62.3938929,11.4575284 62.3938929,17.0623905 L62.3938929,30.0860716 L59.3724543,30.0860716 L59.3724543,26.8715371 C57.9029666,28.8086147 55.4533991,30.5393216 51.7384482,30.5393216 C47.8193929,30.5393216 43.8595801,28.3142181 43.8595801,23.8630543 C43.8595801,19.3292784 47.5337733,16.9389509 52.8818745,16.9389509 C55.575988,16.9389509 57.494758,17.3099078 59.3724543,17.8454509 L59.3724543,17.103856 C59.3724543,13.2708474 57.0457917,11.2929422 53.0856629,11.2929422 C50.5953377,11.2929422 48.6358101,11.951925 46.6762825,12.858744" id="Fill-3" fill="#FFFFFF"></path>
                    <polygon id="Fill-5" fill="#FFFFFF" points="66.5174632 30.0861034 69.6608589 30.0861034 69.6608589 0 66.5174632 0"></polygon>
                    <polygon id="Fill-7" fill="#FFFFFF" points="74.3963313 30.0861034 77.539727 30.0861034 77.539727 0 74.3963313 0"></polygon>
                    <path d="M93.9103132,30.786775 C92.1138163,35.1967922 90.0727733,36.8040595 86.888304,36.8040595 C85.1328807,36.8040595 83.8264236,36.4331026 82.3976936,35.7326543 L83.4592887,33.2185681 C84.4794942,33.7544302 85.4188163,34.0016284 86.766031,34.0016284 C88.6437273,34.0016284 89.8275954,33.0125164 91.0932948,30.0037147 L81.499761,8.77847328 L84.969534,8.77847328 L92.6446138,26.5416629 L99.4214451,8.77847328 L102.768945,8.77847328 L93.9103132,30.786775 Z" id="Fill-8" fill="#FFFFFF"></path>
                </g>
            </g>
        </g>
    </g>
</svg>