<?xml version="1.0" encoding="UTF-8" standalone="no"?>
<svg width="249px" height="106px" viewBox="0 0 249 106" version="1.1" xmlns="http://www.w3.org/2000/svg" xmlns:xlink="http://www.w3.org/1999/xlink">
    <!-- Generator: Sketch 3.6.1 (26313) - http://www.bohemiancoding.com/sketch -->
    <title>ally-logo</title>
    <desc>Created with Sketch.</desc>
    <defs></defs>
    <g id="keyWidths" stroke="none" stroke-width="1" fill="none" fill-rule="evenodd">
        <g id="768" transform="translate(-260.000000, -290.000000)">
            <g id="ally-logo" transform="translate(260.000000, 290.000000)">
                <path d="M156.881134,14.4686339 L128.095007,14.4686339 L174.152811,83.9180767 L174.152811,105.621028 L202.938938,105.621028 L202.938938,83.9180767 L248.996741,14.4686339 L220.210614,14.4686339 C220.210614,32.0484068 206.033827,46.2996285 188.545874,46.2996285 C171.057921,46.2996285 156.881134,32.0484068 156.881134,14.4686339 Z M188.545874,28.9372678 C196.494944,28.9372678 202.938938,22.4594398 202.938938,14.4686339 C202.938938,6.47782805 196.494944,0 188.545874,0 C180.596805,0 174.152811,6.47782805 174.152811,14.4686339 C174.152811,22.4594398 180.596805,28.9372678 188.545874,28.9372678 Z" id="Y" fill="#00C7D1"></path>
                <path d="M128.095007,105.621028 L156.881134,105.621028 L156.881134,14.4686339 L128.095007,14.4686339 L128.095007,105.621028 L128.095007,105.621028 Z" id="L" fill="#A3E564"></path>
                <rect id="L" fill="#A3E564" x="92.1156069" y="14.4686339" width="28.7861272" height="91.1523936"></rect>
                <path d="M120.901734,105.621028 L60.4508671,14.4686339 L0,105.621028 L29.631232,105.621028 C34.9867259,93.6781939 46.9329482,85.3649401 60.8106936,85.3649401 C74.688439,85.3649401 86.6346614,93.6781939 91.9901483,105.621026 L120.901734,105.621028 Z M60.4508671,78.1306231 C68.3999366,78.1306231 74.8439306,71.6527951 74.8439306,63.6619892 C74.8439306,55.6711833 68.3999366,49.1933553 60.4508671,49.1933553 C52.5017975,49.1933553 46.0578035,55.6711833 46.0578035,63.6619892 C46.0578035,71.6527951 52.5017975,78.1306231 60.4508671,78.1306231 L60.4508671,78.1306231 Z" id="A" fill="#FFFFFF"></path>
                <path d="M156.881134,57.8745356 L128.095007,14.4686339 L142.488071,14.4686339 L156.881134,14.4686339 L156.881134,57.8745356 L156.881134,57.8745356 Z" id="rightTriangle" fill="#009B00"></path>
                <path d="M92.1156069,62.2151258 L120.901734,105.621028 L106.508671,105.621028 L92.1156069,105.621028 L92.1156069,62.2151258 L92.1156069,62.2151258 L92.1156069,62.2151258 Z" id="leftTriangle" fill="#70CF00"></path>
            </g>
        </g>
    </g>
</svg>