<?xml version="1.0" encoding="UTF-8"?>
<svg width="320px" height="321px" viewBox="0 0 320 321" version="1.1" xmlns="http://www.w3.org/2000/svg" xmlns:xlink="http://www.w3.org/1999/xlink">
    <!-- Generator: Sketch 52.6 (67491) - http://www.bohemiancoding.com/sketch -->
    <title>tour-icon-youtube</title>
    <desc>Created with Sketch.</desc>
    <g id="usergroupPages" stroke="none" stroke-width="1" fill="none" fill-rule="evenodd">
        <g id="tour-icon-youtube">
            <path d="M160,0.95 C71.63,0.95 0,72.58 0,160.95 C0,249.31 71.63,320.95 160,320.95 C248.37,320.95 320,249.31 320,160.95 C320,72.58 248.37,0.95 160,0.95 Z" id="Path" fill="#000000"></path>
            <path d="M159.97,153.02 C159.97,153.01 223.28,153.11 230.79,160.62 C238.33,168.14 238.42,205.24 238.42,205.45 C238.42,205.45 238.36,242.75 230.79,250.29 C223.27,257.78 159.97,257.95 159.97,257.95 C159.97,257.95 96.67,257.79 89.14,250.29 C81.6,242.77 81.59,205.73 81.59,205.45 C81.59,205.24 81.61,168.14 89.14,160.62 C96.67,153.12 159.97,153.02 159.97,153.02 Z M224.91,214.25 L224.91,202.39 C224.91,197.98 223.79,194.6 221.55,192.25 C219.3,189.9 216.08,188.72 211.89,188.72 C207.79,188.72 204.46,189.99 201.87,192.53 C199.29,195.07 197.98,198.37 197.98,202.39 L197.98,223.28 C197.98,227.77 199.18,231.29 201.52,233.83 C203.87,236.39 207.11,237.66 211.2,237.66 C215.75,237.66 219.18,236.46 221.46,234.06 C223.77,231.63 224.9,228.04 224.9,223.27 L224.9,220.88 L215.5,220.88 L215.5,223 C215.5,225.75 215.18,227.51 214.58,228.31 C213.98,229.11 212.92,229.51 211.4,229.51 C209.94,229.51 208.92,229.05 208.3,228.1 C207.71,227.15 207.41,225.45 207.41,223 L207.41,214.25 L224.91,214.25 Z M207.41,206.99 L207.41,202.29 C207.41,200.34 207.72,198.94 208.35,198.12 C208.99,197.25 210.04,196.84 211.49,196.84 C212.88,196.84 213.91,197.25 214.52,198.12 C215.16,198.94 215.49,200.34 215.49,202.29 L215.49,206.99 L207.41,206.99 Z M190.9,192.26 C189.38,190.29 187.17,189.3 184.27,189.3 C182.85,189.3 181.45,189.66 180.05,190.41 C178.67,191.14 177.37,192.23 176.13,193.64 L176.13,173.33 L166.89,173.33 L166.89,236.39 L176.13,236.39 L176.13,232.82 C177.32,234.26 178.64,235.29 180.04,235.97 C181.43,236.65 183.02,236.98 184.82,236.98 C187.53,236.98 189.62,236.12 191.04,234.35 C192.48,232.59 193.19,230.07 193.19,226.78 L193.19,200.96 C193.19,197.15 192.44,194.24 190.9,192.26 Z M183.78,225.49 C183.78,226.99 183.5,228.04 182.98,228.69 C182.46,229.36 181.64,229.68 180.52,229.68 C179.74,229.68 179.02,229.51 178.31,229.18 C177.6,228.86 176.87,228.28 176.13,227.54 L176.13,198.55 C176.75,197.91 177.38,197.43 178.02,197.13 C178.65,196.82 179.3,196.68 179.96,196.68 C181.19,196.68 182.15,197.08 182.81,197.89 C183.45,198.7 183.78,199.9 183.78,201.46 L183.78,225.49 Z M150.87,236.38 L160,236.38 L160,189.85 L150.87,189.85 L150.87,225.19 C150,226.2 149.06,227.02 148.03,227.68 C147,228.35 146.14,228.67 145.47,228.67 C144.62,228.67 143.99,228.43 143.59,227.93 C143.22,227.43 143.03,226.64 143.03,225.53 L143.03,189.85 L133.89,189.85 L133.89,228.75 C133.89,231.53 134.44,233.59 135.49,234.98 C136.58,236.38 138.15,237.06 140.27,237.06 C141.98,237.06 143.75,236.58 145.58,235.58 C147.42,234.6 149.17,233.16 150.87,231.27 L150.87,236.38 Z M119.21,182.49 L129.87,182.49 L129.87,173.33 L98.23,173.33 L98.23,182.49 L108.89,182.49 L108.89,236.38 L119.21,236.38 L119.21,182.49 Z M211.46,133.51 L201.16,133.51 L201.16,127.85 C199.28,129.93 197.3,131.53 195.24,132.61 C193.19,133.7 191.2,134.25 189.27,134.25 C186.87,134.25 185.09,133.48 183.89,131.96 C182.69,130.43 182.08,128.15 182.08,125.09 L182.08,82.26 L192.36,82.26 L192.36,121.55 C192.36,122.76 192.6,123.64 193.03,124.18 C193.45,124.73 194.16,125 195.12,125 C195.87,125 196.83,124.64 197.99,123.92 C199.14,123.2 200.21,122.28 201.16,121.16 L201.16,82.26 L211.46,82.26 L211.46,133.51 Z M169.65,84.69 C172.36,87.17 173.72,90.37 173.73,94.27 L173.73,120.75 C173.73,125.13 172.4,128.56 169.74,131.06 C167.05,133.55 163.39,134.8 158.7,134.8 C154.2,134.8 150.59,133.51 147.88,130.94 C145.19,128.36 143.83,124.9 143.83,120.54 L143.83,93.98 C143.82,90 145.21,86.84 147.99,84.49 C150.75,82.14 154.49,80.96 159.16,80.96 C163.42,80.96 166.92,82.21 169.65,84.69 Z M163.23,121.52 L163.23,93.6 C163.23,92.48 162.81,91.57 161.97,90.88 C161.13,90.19 160.03,89.85 158.68,89.85 C157.42,89.85 156.4,90.19 155.61,90.88 C154.83,91.57 154.43,92.48 154.43,93.6 L154.43,121.52 C154.43,122.92 154.81,124 155.54,124.78 C156.26,125.55 157.31,125.93 158.68,125.93 C160.07,125.93 161.17,125.54 162,124.76 C162.82,123.96 163.23,122.88 163.23,121.52 Z M115.78,64.05 L123.31,91.81 L124.04,91.81 L131.2,64.05 L142.99,64.05 L129.5,104.69 L129.5,133.51 L117.9,133.51 L117.9,105.99 L104.1,64.05 L115.78,64.05 Z" id="Combined-Shape" fill="#FFFFFF"></path>
        </g>
    </g>
</svg>