<?xml version="1.0" encoding="UTF-8"?>
<svg width="320px" height="320px" viewBox="0 0 320 320" version="1.1" xmlns="http://www.w3.org/2000/svg" xmlns:xlink="http://www.w3.org/1999/xlink">
    <!-- Generator: Sketch 52.6 (67491) - http://www.bohemiancoding.com/sketch -->
    <title>Group 4</title>
    <desc>Created with Sketch.</desc>
    <defs>
        <path d="M238.921,96.8 C238.921,88.11 231.89,81 223.2,81 L96.8,81 C88.11,81 81,88.11 81,96.8 L81,191.6 C81,200.29 88.11,207.4 96.8,207.4 L207.4,207.4 L239,239 L238.921,96.8 Z" id="path-1"></path>
    </defs>
    <g id="usergroupPages" stroke="none" stroke-width="1" fill="none" fill-rule="evenodd">
        <g id="Group-4">
            <path d="M160,0 C71.63,0 0,71.63 0,160 C0,248.36 71.63,320 160,320 C248.37,320 320,248.36 320,160 C320,71.63 248.37,0 160,0 Z" id="Combined-Shape" fill="#000000"></path>
            <mask id="mask-2" fill="white">
                <use xlink:href="#path-1"></use>
            </mask>
            <use id="Path" fill="#FFFFFF" xlink:href="#path-1"></use>
            <path d="M127,174.5 C127,180.851298 121.851258,186 115.49991,186 C109.148562,186 104,180.851298 104,174.5 C104,168.148702 109.148742,163 115.50009,163 C121.851438,163 127,168.148881 127,174.5 Z M157.995813,183.015244 C156.510728,155.532026 134.497383,133.490877 106.984924,132.004187 C105.361001,131.916369 104,133.2212 104,134.847438 L104,143.392657 C104,144.88859 105.153722,146.143112 106.646451,146.240174 C126.526743,147.53505 142.462157,163.430874 143.759695,183.35354 C143.856935,184.846274 145.111452,186 146.607203,186 L155.152393,186 C156.778804,186.000178 158.083631,184.639172 157.995813,183.015244 Z M183.998144,183.052866 C182.499217,141.299424 148.904425,107.508101 106.946962,106.001856 C105.334463,105.943999 104,107.246673 104,108.860061 L104,117.443606 C104,118.983779 105.220535,120.237347 106.759462,120.300561 C140.898539,121.700378 168.299944,149.1069 169.699586,183.240544 C169.762621,184.779468 171.016192,186 172.556547,186 L181.140111,186 C182.753324,185.999821 184.056002,184.665361 183.998144,183.052866 Z" id="Shape" fill="#000000" fill-rule="nonzero" mask="url(#mask-2)"></path>
        </g>
    </g>
</svg>