<?xml version="1.0" encoding="UTF-8"?>
<svg width="320px" height="320px" viewBox="0 0 320 320" version="1.1" xmlns="http://www.w3.org/2000/svg" xmlns:xlink="http://www.w3.org/1999/xlink">
    <!-- Generator: Sketch 52.6 (67491) - http://www.bohemiancoding.com/sketch -->
    <title>Group 4</title>
    <desc>Created with Sketch.</desc>
    <defs>
        <path d="M157.921,15.8 C157.921,7.11 150.89,0 142.2,0 L15.8,0 C7.11,0 0,7.11 0,15.8 L0,110.6 C0,119.29 7.11,126.4 15.8,126.4 L126.4,126.4 L158,158 L157.921,15.8 Z" id="path-1"></path>
    </defs>
    <g id="usergroupPages" stroke="none" stroke-width="1" fill="none" fill-rule="evenodd">
        <g id="Group-4">
            <path d="M160,0 C71.63,0 0,71.63 0,160 C0,248.36 71.63,320 160,320 C248.37,320 320,248.36 320,160 C320,71.63 248.37,0 160,0 Z" id="Path" fill="#000000"></path>
            <g id="iconComment" transform="translate(81.000000, 81.000000)">
                <mask id="mask-2" fill="white">
                    <use xlink:href="#path-1"></use>
                </mask>
                <use id="Path" fill="#FFFFFF" xlink:href="#path-1"></use>
                <path d="M84.1509763,76.3666667 L74.2346583,76.3666667 L72.4166667,25.0166667 L85.5833333,25.0166667 L84.1509763,76.3666667 Z M86.9,92.825 C86.9,95.583744 86.2717022,97.480352 85.0150877,98.514881 C83.7584732,99.5494099 81.7442244,100.066667 78.9722807,100.066667 C77.4569515,100.066667 76.2003559,99.9123971 75.2024561,99.6038534 C74.2045564,99.2953097 73.4007048,98.8415757 72.7908772,98.2426378 C72.1810496,97.6437 71.7467849,96.8905016 71.4880702,95.9830201 C71.2293554,95.0755385 71.1,94.0228757 71.1,92.825 C71.1,90.2477524 71.6913391,88.3965177 72.8740351,87.2712406 C74.0567311,86.1459635 76.0894593,85.5833333 78.9722807,85.5833333 C81.8920614,85.5833333 83.9432689,86.1550381 85.1259649,87.2984649 C86.3086609,88.4418917 86.9,90.2840516 86.9,92.825 Z" id="exclaimationMark" fill="#121519" mask="url(#mask-2)"></path>
            </g>
        </g>
    </g>
</svg>