<?xml version="1.0" encoding="UTF-8"?>
<svg width="320px" height="320px" viewBox="0 0 320 320" version="1.1" xmlns="http://www.w3.org/2000/svg" xmlns:xlink="http://www.w3.org/1999/xlink">
    <!-- Generator: Sketch 52.6 (67491) - http://www.bohemiancoding.com/sketch -->
    <title>tour-icon-instagram</title>
    <desc>Created with Sketch.</desc>
    <g id="usergroupPages" stroke="none" stroke-width="1" fill="none" fill-rule="evenodd">
        <g id="tour-icon-instagram">
            <path d="M160,0 C71.63,0 0,71.63 0,160 C0,248.36 71.63,320 160,320 C248.37,320 320,248.36 320,160 C320,71.63 248.37,0 160,0 Z" id="Path" fill="#000000"></path>
            <path d="M159.99947,87.0363607 L160.000177,87.0360074 C136.235519,87.0360074 133.420911,87.1268019 124.035942,87.5549846 C115.358598,87.950665 110.646153,89.400551 107.510058,90.6193879 C103.644406,92.0461514 100.147649,94.3211258 97.276855,97.2770636 C94.3206318,100.147903 92.0454262,103.64482 90.6185255,107.510701 C89.3996983,110.647174 87.9501771,115.359304 87.5541466,124.036716 C87.1259673,133.422467 87.0351735,136.23639 87.0351735,160.001237 C87.0351735,183.766083 87.1259673,186.581066 87.5541466,195.965757 C87.9498239,204.643169 89.3996983,209.355652 90.6185255,212.491772 C92.0452778,216.357455 94.3202341,219.854239 97.2761484,222.725056 C100.146927,225.681013 103.643688,227.95599 107.509351,229.382732 C110.6458,230.601215 115.357892,232.051101 124.035235,232.447135 C133.419498,232.875318 136.233046,232.966112 159.99947,232.966112 C183.765894,232.966112 186.580502,232.875318 195.963705,232.447135 C204.641048,232.051455 209.353494,230.601569 212.489589,229.382732 C220.25137,226.38859 226.386297,220.253615 229.380415,212.491772 C230.598889,209.355299 232.048763,204.643169 232.444794,195.965757 C232.872973,186.580006 232.963767,183.766083 232.963767,160.001237 C232.963767,136.23639 232.872973,133.42176 232.444794,124.036716 C232.049116,115.359304 230.599242,110.646821 229.380415,107.510701 C227.953673,103.645013 225.678715,100.148226 222.722792,97.2774169 C219.852006,94.3214697 216.355246,92.0464939 212.489589,90.6197411 C209.35314,89.4009043 204.641048,87.9513716 195.963705,87.5553379 C186.578029,87.1271552 183.763421,87.0363607 159.99947,87.0363607 Z M160.000177,71 L159.99947,71 C184.170404,71 187.20228,71.102453 196.693588,71.5373481 C206.166879,71.9680038 212.636202,73.4722958 218.297566,75.670795 C224.236623,77.9060265 229.616557,81.41001 234.062124,85.9383476 C238.589541,90.3838451 242.092757,95.763434 244.327476,101.701971 C246.527724,107.363027 248.032004,113.832401 248.464423,123.305767 C248.897548,132.79715 249,135.829405 249,160.000177 C249,184.170949 248.897548,187.20179 248.464423,196.694586 C248.032004,206.167599 246.527724,212.636973 244.327476,218.298382 C239.70387,230.253138 230.253287,239.703796 218.298626,244.327439 C212.637615,246.527704 206.168292,248.031996 196.695001,248.464418 C187.203694,248.897547 184.171463,249 160.000883,249 C135.830303,249 132.799486,248.897547 123.306765,248.464418 C113.833828,248.031996 107.364505,246.527704 101.703141,244.327439 C95.7646506,242.092702 90.3851043,238.589458 85.9396422,234.062006 C81.4122519,229.616487 77.9090404,224.236904 75.6742907,218.298382 C73.4740426,212.637326 71.9697625,206.167952 71.5373438,196.694586 C71.1024521,187.203203 71,184.171302 71,160.000177 C71,135.829051 71.1024521,132.79715 71.5373438,123.305767 C71.9679961,113.832401 73.4722762,107.363027 75.6707579,101.701618 C77.9063252,95.7628333 81.4105162,90.3832275 85.9389356,85.9379943 C90.3844122,81.4105593 95.7639543,77.9073187 101.702434,75.6725614 C107.363445,73.4722958 113.832768,71.9680038 123.306058,71.5355817 C132.797366,71.102453 135.829243,71 160.000177,71 Z M160.5,115 C185.628956,115 206,135.371044 206,160.5 C206,185.628956 185.628956,206 160.5,206 C135.371044,206 115,185.628956 115,160.5 C115,135.371044 135.371044,115 160.5,115 Z M160.5,190.034816 C176.811685,190.034816 190.034974,176.811685 190.035168,160.5 C190.035168,144.188417 176.812052,130.965249 160.500469,130.965184 C144.188886,130.965119 130.965665,144.188183 130.965536,160.499766 C130.965406,176.811348 144.188417,190.034622 160.5,190.034816 Z M207.5,123 C201.70101,123 197,118.29899 197,112.5 C197,106.70101 201.70101,102 207.5,102 C213.29899,102 218,106.70101 218,112.5 C218,118.29899 213.29899,123 207.5,123 Z" id="Combined-Shape" fill="#FFFFFF" fill-rule="nonzero"></path>
        </g>
    </g>
</svg>