<?xml version="1.0" encoding="UTF-8"?>
<svg width="89px" height="31px" viewBox="0 0 89 31" version="1.1" xmlns="http://www.w3.org/2000/svg" xmlns:xlink="http://www.w3.org/1999/xlink">
    <!-- Generator: Sketch 52.6 (67491) - http://www.bohemiancoding.com/sketch -->
    <title>allyBanner</title>
    <desc>Created with Sketch.</desc>
    <defs>
        <polygon id="path-1" points="0.128564501 30.432806 34.4363659 30.432806 34.4363659 0.171420651 0.128564501 0.171420651"></polygon>
    </defs>
    <g id="usergroupPages" stroke="none" stroke-width="1" fill="none" fill-rule="evenodd">
        <g id="03-map-page-v02" transform="translate(-391.000000, -138.000000)">
            <g id="ally-tour-2019-hero" transform="translate(250.000000, 89.000000)">
                <g id="ally-tour-2019-logo" transform="translate(65.000000, 40.000000)">
                    <g id="allyBanner" transform="translate(76.000000, 9.500000)">
                        <g id="allyLogo">
                            <g id="Group-3" transform="translate(54.183803, 0.000000)">
                                <mask id="mask-2" fill="white">
                                    <use xlink:href="#path-1"></use>
                                </mask>
                                <g id="Clip-2"></g>
                                <path d="M17.2829046,0.171420651 C15.0274687,0.171420651 13.1990303,2.02729712 13.1990303,4.31657871 C13.1990303,6.60638502 15.0274687,8.46226148 17.2829046,8.46226148 C19.5383405,8.46226148 21.366779,6.60638502 21.366779,4.31657871 C21.366779,2.02729712 19.5383405,0.171420651 17.2829046,0.171420651 L17.2829046,0.171420651 Z M26.2679452,4.31657871 C26.2679452,9.35320811 22.2450704,13.4364512 17.2829046,13.4364512 C12.3197049,13.4364512 8.29786407,9.35320811 8.29786407,4.31657871 L0.128564501,4.31657871 L13.1990303,24.2143868 L13.1990303,30.4331733 L21.366779,30.4331733 L21.366779,24.2143868 L34.4367278,4.31657871 L26.2679452,4.31657871 Z" id="Fill-1" fill="#00C7D1" mask="url(#mask-2)"></path>
                            </g>
                            <g id="Group-6" transform="translate(0.000000, 4.174154)" fill="#FFFFFF">
                                <path d="M0,25.9649776 L8.405027,25.9649776 C9.92381471,22.5631811 13.3139474,20.1942871 17.2520429,20.1942871 C21.1901385,20.1942871 24.5797542,22.5631811 26.0985419,25.9649776 L34.3029938,25.9649776 L17.1496876,0 L0,25.9649776 Z M13.0652963,14.0125221 C13.0652963,11.736485 14.8942517,9.89134553 17.1496876,9.89134553 C19.4051235,9.89134553 21.233562,11.736485 21.233562,14.0125221 C21.233562,16.2885593 19.4051235,18.1336988 17.1496876,18.1336988 C14.8942517,18.1336988 13.0652963,16.2885593 13.0652963,14.0125221 L13.0652963,14.0125221 Z" id="Fill-4"></path>
                            </g>
                            <polygon id="Fill-7" fill="#70CF00" points="34.1960003 30.2012308 42.383775 30.2012308 42.383775 4.17415385 34.1960003 4.17415385"></polygon>
                            <polygon id="Fill-9" fill="#70CF00" points="45.9960286 30.2012308 54.1838033 30.2012308 54.1838033 4.17415385 45.9960286 4.17415385"></polygon>
                        </g>
                    </g>
                </g>
            </g>
        </g>
    </g>
</svg>