<?xml version="1.0" encoding="UTF-8"?>
<svg width="320px" height="320px" viewBox="0 0 320 320" version="1.1" xmlns="http://www.w3.org/2000/svg" xmlns:xlink="http://www.w3.org/1999/xlink">
    <!-- Generator: Sketch 52.6 (67491) - http://www.bohemiancoding.com/sketch -->
    <title>tour-icon-soundcloud</title>
    <desc>Created with Sketch.</desc>
    <g id="usergroupPages" stroke="none" stroke-width="1" fill="none" fill-rule="evenodd">
        <g id="tour-icon-soundcloud">
            <path d="M160,0 C71.63,0 0,71.63 0,160 C0,248.36 71.63,320 160,320 C248.37,320 320,248.36 320,160 C320,71.63 248.37,0 160,0 Z" id="Path" fill="#000000"></path>
            <path d="M71.7480167,194.054951 C71.2774534,193.590915 70.9259484,192.538346 70.9259484,191.830974 C70.9259484,191.010423 70.4553851,183.891432 69.8714331,175.946232 L68.8169178,161.453597 L69.9904913,135.869372 C71.1583953,109.815452 71.2774534,108.881721 73.2674258,108.881721 C73.6189309,108.881721 74.3219411,109.113739 74.7925043,109.583434 C75.4955145,110.166308 75.8470196,113.437196 77.0149236,135.399677 L78.420944,160.633046 L77.0149236,177.106322 C76.1928553,186.217271 75.3764563,193.930454 75.0249513,194.275651 C74.2028829,195.215041 72.7968625,195.096203 71.7480167,194.162472 L71.7480167,194.054951 Z M83.6821814,193.709754 C83.0982294,192.889202 82.6276662,187.982871 81.8112673,176.183909 C80.8758102,162.160969 80.756752,158.188369 81.2273153,147.679653 C81.4597622,141.01338 81.9303254,127.816651 82.2818305,118.349186 C82.6333356,108.88738 82.9848407,100.591323 83.1038989,99.6575922 C83.5744621,96.6187227 87.0838436,96.1546867 87.7868538,99.0747177 C87.905912,99.6575922 88.6089221,113.793711 89.3119323,130.380166 L90.5988945,160.644364 L89.3119323,176.302747 C88.8563715,181.714369 88.4273789,187.128187 88.0249701,192.544005 C88.0249701,193.472077 86.4998916,194.762323 85.4510458,194.762323 C84.8614243,194.762323 84.1640836,194.292628 83.6935203,193.596574 L83.6935203,193.709754 L83.6821814,193.709754 Z M95.860132,193.941772 C95.0380636,193.12122 94.8056167,191.836633 94.5731698,185.764553 C94.3350534,181.791953 93.9835484,175.833052 93.7511014,172.562165 C93.0480913,164.271767 93.16148,153.519715 93.9835484,127.92983 C94.4541116,115.78567 94.8056167,103.517013 94.8056167,100.478144 C94.9246749,94.287225 95.3952381,92.4197634 97.0337054,91.9500684 C99.0236778,91.4803735 100.543087,92.8837993 100.543087,95.3397944 C100.543087,96.5112022 101.127039,111.694232 101.71666,128.988059 L102.890234,160.418005 L101.71666,176.189568 C101.127039,184.830822 100.543087,192.193148 100.543087,192.549664 C100.543087,193.477736 99.0180083,194.767982 97.8501043,194.767982 C97.2661523,194.767982 96.444084,194.298287 95.860132,193.834251 L95.860132,193.941772 Z M108.032413,193.941772 C107.448461,193.240059 107.096956,191.836633 106.85884,189.618315 C105.101314,162.98152 105.101314,161.1084 105.923383,133.305856 C106.977898,94.9889379 107.210345,91.3615351 108.145802,90.4278042 C109.081259,89.4940734 111.660853,89.4940734 112.477252,90.4278042 C112.947815,90.8974991 113.29932,97.671292 113.883272,112.85998 C115.289292,155.268338 115.408351,162.042131 114.467224,175.946232 C113.412709,191.717795 113.29932,193.115561 112.244805,194.049292 C111.190289,195.101862 109.319375,194.988682 108.145802,193.817274 L108.032413,193.941772 Z M120.204694,193.822933 C119.620742,193.2344 119.150179,191.955472 119.150179,191.13492 C119.150179,190.314369 118.798674,183.308558 118.328111,175.595375 C117.506042,162.630664 117.506042,159.003261 118.328111,127.578974 C119.263568,91.1295171 119.263568,91.7123915 121.95655,91.1295171 C124.298028,90.6598222 125.823106,92.6461223 125.823106,96.2678662 C125.823106,97.90331 126.055553,106.431385 126.293669,115.078299 C126.526116,123.725212 126.877621,136.921941 127.115738,144.408765 C127.234796,151.771091 127.467243,158.194028 127.586301,158.544884 C127.705359,158.895741 127.348185,166.252408 126.764233,174.899321 C126.367535,180.50634 126.016019,186.116451 125.709717,191.729113 C125.709717,193.126879 123.838803,195 122.200336,195 C121.33134,194.925473 120.52961,194.502892 119.977917,193.828592 L120.204694,193.828592 L120.204694,193.822933 Z M132.72848,193.941772 C131.673965,192.889202 131.554907,191.604615 130.506061,172.913021 C129.922109,162.04779 130.035498,150.599684 131.090013,113.561693 C131.679635,93.7043506 131.679635,93.3534942 134.837511,93.3534942 C135.892026,93.3534942 136.946541,93.7043506 137.530493,94.4060635 C138.585009,95.4586328 138.585009,96.2735252 139.049903,113.329675 C139.168961,118.700042 139.639524,131.789251 139.871971,142.303626 C140.342534,159.472956 140.342534,163.100359 139.401408,177.236478 C138.465951,192.425166 138.346892,193.008041 137.178988,193.941772 C135.65391,195.107521 133.782996,195.107521 132.496033,193.941772 L132.72848,193.941772 Z M145.133208,193.941772 C144.430198,193.240059 144.078693,191.955472 143.846246,189.618315 C143.024178,180.620545 142.440226,158.307207 142.672673,145.104819 C142.791731,136.9276 143.143236,124.426925 143.262294,117.064599 C143.846246,87.5077732 144.084363,82.839119 145.133208,81.7865497 C146.420171,80.5019624 148.994095,80.5019624 150.167668,81.7865497 C151.454631,83.0711369 151.573689,86.8117193 152.741593,143.825891 C153.093098,161.000879 151.919524,191.140579 150.75162,193.240059 C149.697105,195.232018 146.652617,195.577215 145.01415,193.941772 L145.133208,193.941772 Z M157.895111,193.822933 C157.03261,193.161895 156.448329,192.203344 156.256644,191.13492 C156.137585,190.19553 155.667022,182.601186 155.202128,174.19195 C154.618176,162.160969 154.499118,154.917481 154.850623,140.192829 C155.08874,129.916131 155.440245,112.85998 155.672692,102.345605 C156.024197,78.2779853 156.262313,75.9408287 157.662664,74.5374029 C159.187742,73.1339772 161.410162,73.2528156 163.048629,74.7694209 C164.222202,75.9408287 164.335591,76.4048646 164.454649,82.3637651 C164.454649,85.8666705 164.573708,89.3695759 164.687096,90.0712888 C164.800485,90.7730017 164.925213,100.704502 165.15766,112.14695 C165.395776,123.595056 165.628223,133.062521 165.747281,133.181359 C166.331233,134.11509 165.866339,167.995372 165.15766,178.509747 C164.837043,182.790495 164.563004,187.074592 164.335591,191.361279 C164.335591,192.645866 161.994114,194.864185 160.474705,194.864185 C159.766025,194.875503 158.592452,194.411467 157.895111,193.822933 Z M169.245324,193.590915 L167.952692,192.300669 L167.952692,71.5041924 L169.358712,70.4516231 C170.99718,69.1670358 177.199544,67.1807356 183.407577,65.8961484 C190.080504,64.6115611 200.965823,64.7247406 207.871197,66.1281663 C235.487025,71.8550488 255.154301,93.0026378 259.604809,121.738912 L259.956314,123.606374 L264.525881,122.321786 C268.386767,121.269217 269.792788,121.037199 274.821578,121.269217 C281.965069,121.620073 282.310904,121.620073 286.98819,123.368697 C307.596593,131.195059 316.951164,154.911822 307.006972,174.542806 C302.437405,183.653755 295.883536,189.374979 285.933675,193.002382 L282.191846,194.405808 L226.478289,194.524646 L170.764733,194.643485 L169.245324,193.590915 Z M59.4566774,193.12122 C59.2242305,192.538346 58.5212204,184.825163 57.8182102,176.059411 C56.6446367,160.638705 56.6446367,159.936992 57.4667051,150.129989 C57.9372683,144.635124 58.4078316,137.861331 58.6402785,135.173318 C58.9917836,130.266987 59.813852,127.924171 61.1008142,127.924171 C62.7392814,127.924171 63.2098447,129.797292 64.6158651,144.635124 L66.0218854,159.823812 L64.6158651,175.951891 C63.9128549,184.825163 63.0907865,192.544005 62.8583396,193.240059 C62.6258927,194.06061 62.0362712,194.411467 61.1008142,194.411467 C60.1653571,194.411467 59.6947938,194.06061 59.3432887,193.240059 L59.4566774,193.12122 Z M47.7549596,193.358897 C47.6359014,193.12122 46.8195025,185.645715 46.1164923,176.766783 L44.710472,160.638705 L46.1164923,143.933411 C46.8195025,134.703623 47.7549596,126.871602 47.993076,126.526405 C48.6960862,125.705853 49.7506014,125.705853 50.4536116,126.526405 C50.8051167,126.877261 51.7405738,134.590444 52.5626421,143.820232 L54.0820512,160.412346 L52.5626421,176.534765 C51.7405738,185.413697 50.9241749,192.894861 50.8051167,193.240059 C50.5726698,193.941772 48.1121341,194.179449 47.7606291,193.472077 L47.7606291,193.358897 L47.7549596,193.358897 Z M36.1666305,192.07431 C35.9341836,191.723454 35.1121153,184.598804 34.4091051,176.183909 L33.0030847,160.876382 L34.2900469,146.389406 C34.9930571,138.449865 35.6960673,130.849861 35.809456,129.684113 C36.1609611,127.346956 37.2154764,126.413225 38.2699916,127.460135 C38.6214967,127.810992 39.5569538,134.703623 40.4980803,143.933411 L42.1365476,159.823812 L40.6114691,175.131339 C39.7894007,183.540576 38.8539436,190.902902 38.6214967,191.598956 C38.0375447,192.889202 36.8639713,193.12122 36.1609611,192.18749 L36.1609611,192.07431 L36.1666305,192.07431 Z M24.3458545,187.167979 C24.2267964,186.698284 23.4103974,180.275348 22.7073873,173.03186 L21.3013669,159.829471 L22.820776,146.395065 C24.2267964,133.543533 24.4592433,132.960659 25.5137585,132.728641 C26.8007207,132.490964 26.6816625,131.90809 28.7906931,148.149347 L30.3101022,160.293507 L28.7906931,173.03186 C27.9686247,180.04333 27.0331676,186.234248 26.8007207,186.930302 C26.2110993,188.333728 24.9241371,188.458225 24.572632,187.167979 L24.3458545,187.167979 Z M13.4605356,177.349658 C12.9080352,174.443648 12.4391688,171.522415 12.0545153,168.589564 L11,160.644364 L12.1735734,152.235127 C12.7575254,147.560814 13.5795938,143.469375 13.8120407,143.124178 C14.9799447,141.720752 15.8020131,143.944729 16.9699171,152.235127 L18.2568793,160.644364 L16.9699171,169.0536 C16.2669069,173.727914 15.3314498,177.694855 14.9799447,177.932532 C14.0444876,178.515406 13.6929825,178.402227 13.3414775,177.462837 L13.4605356,177.349658 Z" id="Shape" fill="#FFFFFF" fill-rule="nonzero"></path>
        </g>
    </g>
</svg>