<?xml version="1.0" encoding="UTF-8"?>
<svg width="320px" height="320px" viewBox="0 0 320 320" version="1.1" xmlns="http://www.w3.org/2000/svg" xmlns:xlink="http://www.w3.org/1999/xlink">
    <!-- Generator: Sketch 52.6 (67491) - http://www.bohemiancoding.com/sketch -->
    <title>tour-icon-twitter</title>
    <desc>Created with Sketch.</desc>
    <g id="usergroupPages" stroke="none" stroke-width="1" fill="none" fill-rule="evenodd">
        <g id="tour-icon-twitter">
            <path d="M160,0 C71.63,0 0,71.63 0,160 C0,248.36 71.63,320 160,320 C248.37,320 320,248.36 320,160 C320,71.63 248.37,0 160,0 Z" id="Path" fill="#000000"></path>
            <path d="M182.26,88.86 C166.36,94.65 156.31,109.57 157.45,125.9 L157.83,132.2 L151.47,131.43 C128.32,128.47 108.09,118.44 90.91,101.59 L82.51,93.23 L80.36,99.4 C75.78,113.16 78.71,127.7 88.25,137.48 C93.34,142.88 92.19,143.65 83.42,140.44 C80.37,139.41 77.69,138.64 77.44,139.03 C76.55,139.93 79.6,151.63 82.02,156.27 C85.33,162.71 92.07,169 99.45,172.74 L105.69,175.7 L98.3,175.81 C91.18,175.81 90.92,175.94 91.69,178.65 C94.23,187.01 104.28,195.89 115.48,199.75 L123.37,202.45 L116.5,206.57 C106.32,212.5 94.36,215.84 82.4,216.08 C76.67,216.21 71.96,216.72 71.96,217.11 C71.96,218.39 87.49,225.59 96.51,228.43 C123.61,236.79 155.8,233.18 179.97,218.91 C197.15,208.75 214.32,188.55 222.34,168.99 C226.67,158.58 230.99,139.54 230.99,130.41 C230.99,124.49 231.37,123.72 238.49,116.65 C242.69,112.53 246.63,108.03 247.4,106.75 C248.68,104.3 248.54,104.3 242.06,106.49 C231.25,110.35 229.72,109.84 235.07,104.05 C239.01,99.93 243.72,92.47 243.72,90.29 C243.72,89.91 241.81,90.55 239.65,91.7 C237.36,92.99 232.27,94.92 228.45,96.07 L221.58,98.26 L215.35,94 C211.91,91.69 207.09,89.11 204.54,88.34 C198.04,86.54 188.12,86.8 182.26,88.86 Z" id="Path" fill="#FFFFFF"></path>
        </g>
    </g>
</svg>