<?xml version="1.0" encoding="UTF-8"?>
<svg width="262px" height="394px" viewBox="0 0 262 394" version="1.1" xmlns="http://www.w3.org/2000/svg" xmlns:xlink="http://www.w3.org/1999/xlink">
    <!-- Generator: Sketch 50.2 (55047) - http://www.bohemiancoding.com/sketch -->
    <title>triangle-green-02</title>
    <desc>Created with Sketch.</desc>
    <defs></defs>
    <g id="Page-1" stroke="none" stroke-width="1" fill="none" fill-rule="evenodd">
        <g id="triangle-green-02">
            <polygon id="triangleGreen" fill="#70CF00" transform="translate(130.750000, 197.000025) scale(1, -1) translate(-130.750000, -197.000025) " points="261.5 394.00005 261.5 -4.54747351e-13 0 394.00005"></polygon>
            <path d="M77.1869669,116.297013 L134.784101,112.308526 C136.589816,112.173282 138.327541,113.024898 139.326973,114.534876 L187.484319,187.292689 C188.532934,188.876973 188.593059,190.918678 187.639489,192.561924 L159.778588,240.737177 L77.1869669,116.297013 Z" id="Combined-Shape" fill="#007900"></path>
            <path d="M122.492617,157.438543 L120.447109,154.348116 L127.818158,138.068681 L115.199934,146.420501 L113.154426,143.330074 L130.939647,131.558293 L132.985155,134.648719 L125.581416,150.984925 L138.2485,142.600765 L140.277838,145.666762 L122.492617,157.438543 Z M128.328246,166.786016 C127.083147,164.904878 126.666306,162.987919 127.077708,161.035083 C127.489111,159.082246 128.680153,157.453658 130.650869,156.149269 L131.017323,155.906719 C132.336563,155.033533 133.683747,154.507816 135.058915,154.329553 C136.434083,154.151289 137.715278,154.330913 138.902537,154.868431 C140.089797,155.40595 141.05802,156.240666 141.807235,157.372607 C142.998433,159.172311 143.344663,160.942777 142.845935,162.684059 C142.347207,164.425341 141.047356,165.991273 138.946344,167.381902 L137.749262,168.174233 L132.033157,159.538141 C131.001224,160.349983 130.379231,161.285733 130.167159,162.345417 C129.955087,163.405101 130.169756,164.419464 130.81117,165.388535 C131.711306,166.748493 132.994015,167.492164 134.659336,167.619572 L134.191582,170.23038 C133.051314,170.223889 131.97095,169.923049 130.950456,169.327851 C129.929962,168.732653 129.055901,167.885383 128.328246,166.786016 Z M139.4172,158.936969 C138.878197,158.122624 138.157941,157.653698 137.256412,157.530178 C136.354883,157.406658 135.349352,157.612553 134.239789,158.147868 L137.983151,163.803471 L138.203023,163.657941 C139.153404,162.935209 139.729453,162.173327 139.931187,161.372273 C140.132921,160.571218 139.961594,159.759459 139.4172,158.936969 Z M145.382342,183.130227 L155.897663,179.191723 L157.813811,182.086707 L142.211967,187.231231 L140.594965,184.788206 L147.795079,175.947132 L136.875858,179.169249 L135.258855,176.726224 L146.082455,164.362562 L147.998604,167.257546 L140.386504,175.370018 L151.208354,172.10695 L152.687912,174.342318 L145.382342,183.130227 Z M153.233041,192.496574 L151.543273,189.943613 L163.90225,181.359355 L165.972014,184.486427 L153.233041,192.496574 Z M147.465174,192.115853 C147.929351,191.808621 148.413837,191.704598 148.918648,191.803779 C149.423459,191.902961 149.84834,192.213137 150.193302,192.734319 C150.538264,193.2555 150.65777,193.7678 150.551821,194.271234 C150.445873,194.774669 150.160815,195.179996 149.696638,195.487228 C149.248747,195.78368 148.777135,195.885038 148.281786,195.791305 C147.786436,195.697572 147.360897,195.381976 147.005155,194.844507 C146.649412,194.307039 146.525176,193.792015 146.632443,193.299419 C146.739709,192.806823 147.017283,192.412305 147.465174,192.115853 Z" id="10:20" fill="#FFFFFF"></path>
        </g>
    </g>
</svg>