<?xml version="1.0" encoding="UTF-8"?>
<svg width="289px" height="225px" viewBox="0 0 289 225" version="1.1" xmlns="http://www.w3.org/2000/svg" xmlns:xlink="http://www.w3.org/1999/xlink">
    <!-- Generator: Sketch 42 (36781) - http://www.bohemiancoding.com/sketch -->
    <title>illustration</title>
    <desc>Created with Sketch.</desc>
    <defs></defs>
    <g id="03.Survey" stroke="none" stroke-width="1" fill="none" fill-rule="evenodd">
        <g id="1280-userRegisteredforWebinar" transform="translate(-496.000000, -187.000000)">
            <g id="illustration" transform="translate(496.000000, 187.000000)">
                <path d="M129.341393,208.074902 C100.573313,208.074902 77.252176,184.688129 77.252176,155.839084 C77.252176,126.990038 100.573313,103.603266 129.341393,103.603266 C158.109473,103.603266 181.430609,126.990038 181.430609,155.839084 C181.430609,184.688129 158.109473,208.074902 129.341393,208.074902 Z M99.8996615,157.891506 C103.151705,157.891506 105.788008,155.247783 105.788008,151.986587 C105.788008,148.72539 103.151705,146.081668 99.8996615,146.081668 C96.6476177,146.081668 94.0113153,148.72539 94.0113153,151.986587 C94.0113153,155.247783 96.6476177,157.891506 99.8996615,157.891506 Z M158.783124,157.891506 C162.035168,157.891506 164.67147,155.247783 164.67147,151.986587 C164.67147,148.72539 162.035168,146.081668 158.783124,146.081668 C155.53108,146.081668 152.894778,148.72539 152.894778,151.986587 C152.894778,155.247783 155.53108,157.891506 158.783124,157.891506 Z M104.586157,170.649255 C104.586157,184.282823 115.669454,191.220721 129.341393,191.220721 C143.013332,191.220721 154.096628,184.282823 154.096628,170.649255 L104.586157,170.649255 Z" id="iconFaces" fill="#E8ECEC" fill-rule="nonzero"></path>
                <path d="M205.262532,224.84113 C190.878492,224.84113 179.217924,213.147744 179.217924,198.723221 C179.217924,184.298698 190.878492,172.605312 205.262532,172.605312 C219.646572,172.605312 231.307141,184.298698 231.307141,198.723221 C231.307141,213.147744 219.646572,224.84113 205.262532,224.84113 Z M190.541667,199.749432 C192.167689,199.749432 193.48584,198.427571 193.48584,196.796972 C193.48584,195.166374 192.167689,193.844513 190.541667,193.844513 C188.915645,193.844513 187.597494,195.166374 187.597494,196.796972 C187.597494,198.427571 188.915645,199.749432 190.541667,199.749432 Z M219.983398,199.749432 C221.60942,199.749432 222.927571,198.427571 222.927571,196.796972 C222.927571,195.166374 221.60942,193.844513 219.983398,193.844513 C218.357376,193.844513 217.039225,195.166374 217.039225,196.796972 C217.039225,198.427571 218.357376,199.749432 219.983398,199.749432 Z M192.884914,206.128306 C192.884914,212.94509 198.426563,216.414039 205.262532,216.414039 C212.098502,216.414039 217.64015,212.94509 217.64015,206.128306 L192.884914,206.128306 Z" id="iconFaces" fill="#E8ECEC" fill-rule="nonzero"></path>
                <path d="M59.1341876,208.074902 C49.1278989,208.074902 41.0161992,199.940372 41.0161992,189.905922 C41.0161992,179.871471 49.1278989,171.736941 59.1341876,171.736941 C69.1404763,171.736941 77.252176,179.871471 77.252176,189.905922 C77.252176,199.940372 69.1404763,208.074902 59.1341876,208.074902 Z M48.8935855,190.619807 C50.0247312,190.619807 50.9417059,189.700252 50.9417059,188.565923 C50.9417059,187.431593 50.0247312,186.512038 48.8935855,186.512038 C47.7624398,186.512038 46.8454651,187.431593 46.8454651,188.565923 C46.8454651,189.700252 47.7624398,190.619807 48.8935855,190.619807 Z M69.3747898,190.619807 C70.5059354,190.619807 71.4229102,189.700252 71.4229102,188.565923 C71.4229102,187.431593 70.5059354,186.512038 69.3747898,186.512038 C68.2436441,186.512038 67.3266693,187.431593 67.3266693,188.565923 C67.3266693,189.700252 68.2436441,190.619807 69.3747898,190.619807 Z M50.5236709,195.057285 C50.5236709,199.799396 54.3787306,202.212578 59.1341876,202.212578 C63.8896447,202.212578 67.7447043,199.799396 67.7447043,195.057285 L50.5236709,195.057285 Z" id="iconFaces" fill="#E8ECEC" fill-rule="nonzero"></path>
                <path d="M205.201315,68.3340688 C200.087888,68.3340688 195.904175,72.5110876 195.904175,77.6163328 L195.904175,161.156708 L214.498456,142.59218 L279.578441,142.59218 C284.691868,142.59218 288.875581,138.415161 288.875581,133.309916 L288.875581,77.6163328 C288.875581,72.5110876 284.691868,68.3340688 279.578441,68.3340688 L205.201315,68.3340688 Z" id="iconSpeechBubbles" fill="#FFFFFF"></path>
                <path d="M87.1327462,0.120498805 C81.3040019,0.120498805 76.5350293,4.88184038 76.5350293,10.7012579 L76.5350293,105.928089 L97.7304631,84.7665712 L171.914481,84.7665712 C177.743226,84.7665712 182.512198,80.0052296 182.512198,74.1858121 L182.512198,10.7012579 C182.512198,4.88184038 177.743226,0.120498805 171.914481,0.120498805 L87.1327462,0.120498805 Z" id="iconSpeechBubbles" fill="#70CF00"></path>
                <path d="M6.48430728,96.9902913 C2.96277427,96.9902913 0.0815199871,99.8669351 0.0815199871,103.382833 L0.0815199871,160.915711 L12.8870946,148.130627 L57.7066056,148.130627 C61.2281386,148.130627 64.1093929,145.253983 64.1093929,141.738085 L64.1093929,103.382833 C64.1093929,99.8669351 61.2281386,96.9902913 57.7066056,96.9902913 L6.48430728,96.9902913 Z" id="iconSpeechBubbles" fill="#00C0CB" transform="translate(32.095456, 128.953001) scale(-1, 1) translate(-32.095456, -128.953001) "></path>
            </g>
        </g>
    </g>
</svg>