<svg xmlns="http://www.w3.org/2000/svg" width="24" height="30" viewBox="0 0 24 30">
    <g fill="none" fill-rule="evenodd">
        <path fill="#222" fill-rule="nonzero" d="M3 0h12l9 9v18a3 3 0 0 1-3 3H3a3 3 0 0 1-3-3V3a3 3 0 0 1 3-3zm10.5 2.25v8.25h8.25L13.5 2.25zM1.541 23h1.984c.904 0 1.627-.26 2.17-.781.543-.521.815-1.218.815-2.09 0-1.82-.995-2.73-2.985-2.73H1.541V23zm1.262-4.574h.617c.557 0 .99.153 1.299.459.308.306.463.726.463 1.26 0 .565-.156 1.011-.467 1.34-.311.328-.74.492-1.287.492h-.625v-3.551zm7.004 4.672c.823 0 1.49-.27 2.002-.809.511-.539.767-1.249.767-2.129 0-.857-.247-1.547-.74-2.07-.494-.524-1.14-.785-1.94-.785-.846 0-1.526.273-2.039.82-.513.547-.77 1.263-.77 2.148 0 .839.253 1.52.759 2.041.505.523 1.159.784 1.96.784zm.054-4.707c.43 0 .769.161 1.016.484.247.323.371.775.371 1.355 0 .558-.128.993-.383 1.307-.255.314-.6.47-1.035.47-.422 0-.763-.16-1.023-.484-.26-.322-.391-.761-.391-1.316 0-.547.13-.986.39-1.318.261-.332.613-.498 1.055-.498zm7.66 4.41v-1.153c-.408.24-.859.36-1.351.36-.516 0-.926-.161-1.23-.483-.305-.321-.458-.753-.458-1.295 0-.565.162-1.013.485-1.343.323-.331.747-.496 1.273-.496.48 0 .906.112 1.281.336v-1.215c-.375-.138-.835-.207-1.382-.207-.883 0-1.601.278-2.155.836-.553.557-.83 1.283-.83 2.18 0 .84.246 1.514.739 2.019.492.505 1.168.758 2.027.758.659 0 1.193-.1 1.601-.297zm5.551.199l-1.726-2.824 1.68-2.778h-1.407l-.89 1.665a5.7 5.7 0 0 0-.176.488h-.016a2.902 2.902 0 0 0-.168-.473l-.8-1.68h-1.536l1.633 2.801L17.881 23h1.504l.969-1.809c.067-.174.11-.304.128-.39h.016c.04.182.077.307.113.375L21.576 23h1.496z"/>
    </g>
</svg>
