<svg xmlns="http://www.w3.org/2000/svg" width="24" height="30" viewBox="0 0 24 30">
    <g fill="none" fill-rule="evenodd">
        <path fill="#222" fill-rule="nonzero" d="M13.5 10.5h8.25L13.5 2.25v8.25zM3 0h12l9 9v18c0 1.656-1.344 3-3 3H2.985A2.988 2.988 0 0 1 0 27L.015 3C.015 1.344 1.342 0 3 0z"/>
        <path fill="#FFF" fill-rule="nonzero" d="M2.631 13.983l3.862 3.869 1.287-1.214-2.735-2.655 2.413-2.655L6.17 10zM14.424 13.983l-3.861 3.869-1.287-1.214 2.735-2.655-2.414-2.655L10.884 10z"/>
        <text fill="#FFF" font-family="Roboto-Black, Roboto" font-size="8" font-weight="700" letter-spacing="-.25">
            <tspan x="2" y="26">HTM</tspan> <tspan x="18.813" y="26">L</tspan>
        </text>
    </g>
</svg>
