<svg xmlns="http://www.w3.org/2000/svg" width="24" height="30" viewBox="0 0 24 30">
    <path fill="#222" fill-rule="evenodd" d="M15 0l9 9v18c0 1.65-1.35 3-3 3H2.985A2.996 2.996 0 0 1 0 27L.015 3C.015 1.35 1.35 0 3 0h12zm-1.5 10.5h8.25L13.5 2.25v8.25zM9.277 21.097v-1.125a1.68 1.68 0 0 0-1.679-1.688H4.8v6.75h1.679v-2.25h1.12a1.68 1.68 0 0 0 1.678-1.687zm5.596 2.25v-3.375a1.68 1.68 0 0 0-1.679-1.688h-2.798v6.75h2.798a1.68 1.68 0 0 0 1.68-1.687zm4.477-3.375v-1.688h-3.358v6.75h1.68v-2.25h1.678v-1.687h-1.679v-1.125h1.679zM6.479 21.097h1.12v-1.125h-1.12v1.125zm5.596 2.25h1.12v-3.375h-1.12v3.375z"/>
</svg>
