<svg xmlns="http://www.w3.org/2000/svg" width="24" height="30" viewBox="0 0 24 30">
    <g fill="none" fill-rule="evenodd">
        <path fill="#222" fill-rule="nonzero" d="M3 0h12l9 9v18a3 3 0 0 1-3 3H3a3 3 0 0 1-3-3V3a3 3 0 0 1 3-3zm10.5 2.25v8.25h8.25L13.5 2.25zM8.7 21.6h3.75c2.25 0 3.241-.41 4.2-1.23.958-.82 1.35-1.993 1.35-3.522 0-1.458-.374-2.63-1.35-3.518-.975-.886-1.908-1.33-4.2-1.33H6v15h2.7v-5.4zm.3-1.95v-5.4h3.45c.992 0 1.76.372 2.25.9.492.528.75 1.077.75 1.868 0 .832-.272 1.422-.75 1.882-.479.462-1.046.75-2.066.75H9z"/>
    </g>
</svg>
