<svg xmlns="http://www.w3.org/2000/svg" width="24" height="30" viewBox="0 0 24 30">
    <g fill="none" fill-rule="evenodd">
        <path fill="#222" fill-rule="nonzero" d="M3 0h12l9 9v18a3 3 0 0 1-3 3H3a3 3 0 0 1-3-3V3a3 3 0 0 1 3-3zm10.5 2.25v8.25h8.25L13.5 2.25zM4.031 21.07h.602c.677 0 1.218-.174 1.623-.521.405-.348.607-.803.607-1.365 0-1.19-.705-1.786-2.117-1.786H2.77V23H4.03v-1.93zm0-2.703h.496c.672 0 1.008.288 1.008.863 0 .589-.336.883-1.008.883h-.496v-1.746zm4.914 2.703h.602c.677 0 1.218-.174 1.623-.521.405-.348.607-.803.607-1.365 0-1.19-.705-1.786-2.117-1.786H7.684V23h1.261v-1.93zm0-2.703h.496c.672 0 1.008.288 1.008.863 0 .589-.336.883-1.008.883h-.496v-1.746zm7.586.059v-1.028h-4.453v1.028h1.59V23h1.266v-4.574h1.597zM21.844 23l-1.727-2.824 1.68-2.778H20.39l-.891 1.665a5.7 5.7 0 0 0-.176.488h-.015a2.902 2.902 0 0 0-.168-.473l-.801-1.68h-1.535l1.633 2.801L16.651 23h1.504l.969-1.809c.068-.174.11-.304.129-.39h.016c.039.182.076.307.113.375L20.348 23h1.496z"/>
    </g>
</svg>
