<svg xmlns="http://www.w3.org/2000/svg" viewBox="0 0 30 34" width="30" height="34">
	<style>
		tspan { white-space:pre }
		.shp0 { fill: #191e25 } 
		.shp1 { fill: #181c22 } 
	</style>
	<g id="Symbols">
		<g id="aafOptions-option02">
			<g id="ocred">
				<g id="Layer">
					<path id="Combined-Shape" fill-rule="evenodd" class="shp0" d="M23.21 22.08C22.87 22.05 22.52 22.03 22.17 22.03C17.55 22.03 13.61 24.9 12.01 28.95C12.04 29.03 12.08 29.11 12.11 29.19L2.9 29.19C1.3 29.19 0.01 27.89 0.01 26.29L0.03 3.09C0.03 1.5 1.32 0.19 2.91 0.19L14.51 0.19L23.21 8.89L23.21 22.08ZM13.06 10.34L21.04 10.34L13.06 2.37L13.06 10.34ZM14.39 16.5C14.39 15.59 13.67 14.87 12.77 14.87L10.06 14.87L10.06 21.39L12.77 21.39C13.67 21.39 14.39 20.66 14.39 19.76L14.39 18.76C14.39 18.54 14.35 18.32 14.27 18.13C14.35 17.93 14.39 17.72 14.39 17.5L14.39 16.5ZM11.69 17.58L11.69 16.5L12.77 16.5L12.77 17.58L11.69 17.58ZM11.69 19.76L11.69 18.68L12.77 18.68L12.77 19.76L11.69 19.76ZM8.98 21.39L8.98 16.5C8.98 15.59 8.26 14.87 7.36 14.87L6.28 14.87C5.38 14.87 4.65 15.59 4.65 16.5L4.65 21.39L6.28 21.39L6.28 18.67L7.36 18.67L7.36 21.39L8.98 21.39ZM6.28 17.58L6.28 16.5L7.36 16.5L7.36 17.58L6.28 17.58ZM18.72 16.5L18.72 14.87L15.47 14.87L15.47 21.39L18.72 21.39L18.72 19.75L17.1 19.75L17.1 16.5L18.72 16.5Z" />
					<path id="Shape" fill-rule="evenodd" class="shp1" d="M22.17 23.8C25.61 23.8 28.54 25.94 29.73 28.95C28.54 31.97 25.61 34.11 22.17 34.11C18.73 34.11 15.79 31.97 14.6 28.95C15.79 25.94 18.73 23.8 22.17 23.8ZM22.17 32.39C24.07 32.39 25.61 30.85 25.61 28.95C25.61 27.06 24.07 25.52 22.17 25.52C20.27 25.52 18.73 27.06 18.73 28.95C18.73 30.85 20.27 32.39 22.17 32.39ZM22.17 26.89C23.31 26.89 24.23 27.81 24.23 28.95C24.23 30.1 23.31 31.02 22.17 31.02C21.03 31.02 20.1 30.1 20.1 28.95C20.1 27.81 21.03 26.89 22.17 26.89Z" />
				</g>
			</g>
		</g>
	</g>
</svg>