<?xml version="1.0" encoding="UTF-8"?>
<svg width="41px" height="40px" viewBox="0 0 41 40" version="1.1" xmlns="http://www.w3.org/2000/svg" xmlns:xlink="http://www.w3.org/1999/xlink">
    <!-- Generator: Sketch 46.2 (44496) - http://www.bohemiancoding.com/sketch -->
    <title>iconCustomOCRed</title>
    <desc>Created with Sketch.</desc>
    <defs></defs>
    <g id="Symbols" stroke="none" stroke-width="1" fill="none" fill-rule="evenodd">
        <g id="aafOptions-option02" transform="translate(-22.000000, -6.000000)">
            <g transform="translate(1.000000, 0.000000)" id="ocred">
                <g transform="translate(21.000000, 0.000000)">
                    <path d="M32.2137499,32.0807207 C31.8694714,32.0479077 31.5205063,32.0311236 31.1676015,32.0311236 C26.5522144,32.0311236 22.6106738,34.9018944 21.0137499,38.9542043 C21.0449689,39.0334248 21.077084,39.1121938 21.1100827,39.1904986 L11.8992499,39.1904986 C10.3042499,39.1904986 9.01374986,37.8854986 9.01374986,36.2904986 L9.02824986,13.0904986 C9.02824986,11.4954986 10.3187499,10.1904986 11.9137499,10.1904986 L23.5137499,10.1904986 L32.2137499,18.8904986 L32.2137499,32.0807207 Z M22.0637499,20.3404986 L30.0387499,20.3404986 L22.0637499,12.3654986 L22.0637499,20.3404986 Z M23.3910576,26.4967486 C23.3910576,25.5941236 22.6661691,24.8654986 21.7681729,24.8654986 L19.0633652,24.8654986 L19.0633652,31.3904986 L21.7681729,31.3904986 C22.6661691,31.3904986 23.3910576,30.6618736 23.3910576,29.7592486 L23.3910576,28.7592486 C23.3910576,28.5352969 23.3464339,28.3220565 23.2656142,28.1279986 C23.3464339,27.9339407 23.3910576,27.7207003 23.3910576,27.4967486 L23.3910576,26.4967486 Z M20.6862499,27.5767486 L20.6862499,26.4967486 L21.7662499,26.4967486 L21.7662499,27.5767486 L20.6862499,27.5767486 Z M20.6862499,29.7592486 L20.6862499,28.6792486 L21.7662499,28.6792486 L21.7662499,29.7592486 L20.6862499,29.7592486 Z M17.9814422,31.3904986 L17.9814422,26.4967486 C17.9814422,25.5941236 17.2565537,24.8654986 16.3585576,24.8654986 L15.2766345,24.8654986 C14.3786383,24.8654986 13.6537499,25.5941236 13.6537499,26.4967486 L13.6537499,31.3904986 L17.9814422,31.3904986 Z M15.2766345,31.3904986 L15.2766345,28.6717486 L16.3585576,28.6717486 L16.3585576,31.3904986 L15.2766345,31.3904986 Z M15.2766345,27.5842486 L15.2766345,26.4967486 L16.3585576,26.4967486 L16.3585576,27.5842486 L15.2766345,27.5842486 Z M27.7187499,26.4967486 L27.7187499,24.8654986 L24.4729806,24.8654986 L24.4729806,31.3904986 L26.0958652,31.3904986 L27.7187499,31.3904986 L27.7187499,29.75 L26.0958652,29.75 L26.0958652,26.4967486 L27.7187499,26.4967486 Z" id="Combined-Shape" fill="#191E25"></path>
                    <path d="M31.1676015,33.7968576 C27.7293704,33.7968576 24.793121,35.9354373 23.603493,38.9542043 C24.793121,41.9729712 27.7293704,44.111551 31.1676015,44.111551 C34.6058327,44.111551 37.5420821,41.9729712 38.7317101,38.9542043 C37.5420821,35.9354373 34.6058327,33.7968576 31.1676015,33.7968576 L31.1676015,33.7968576 Z M31.1676015,42.3924354 C29.2696979,42.3924354 27.7293704,40.8521079 27.7293704,38.9542043 C27.7293704,37.0563007 29.2696979,35.5159731 31.1676015,35.5159731 C33.0655051,35.5159731 34.6058327,37.0563007 34.6058327,38.9542043 C34.6058327,40.8521079 33.0655051,42.3924354 31.1676015,42.3924354 L31.1676015,42.3924354 Z M31.1676015,36.8912656 C30.0261088,36.8912656 29.1046628,37.8127115 29.1046628,38.9542043 C29.1046628,40.095697 30.0261088,41.017143 31.1676015,41.017143 C32.3090943,41.017143 33.2305402,40.095697 33.2305402,38.9542043 C33.2305402,37.8127115 32.3090943,36.8912656 31.1676015,36.8912656 L31.1676015,36.8912656 Z" id="Shape" fill="#181C22"></path>
                </g>
            </g>
        </g>
    </g>
</svg>