<?xml version="1.0" encoding="UTF-8"?>
<svg width="24px" height="30px" viewBox="0 0 24 30" version="1.1" xmlns="http://www.w3.org/2000/svg"
     xmlns:xlink="http://www.w3.org/1999/xlink">
    <!-- Generator: Sketch 52.6 (67491) - http://www.bohemiancoding.com/sketch -->
    <title>icon-fileBeelineReader</title>
    <desc>Created with Sketch.</desc>
    <g id="icon-fileBeelineReader" stroke="none" stroke-width="1" fill="none" fill-rule="evenodd">
        <path
            d="M14.5,0.5 L23.2,9.2 L23.2,26.6 C23.2,28.195 21.895,29.5 20.3,29.5 L2.8855,29.5 C1.2905,29.5 7.28306304e-13,28.195 7.28306304e-13,26.6 L0.0145,3.4 C0.0145,1.805 1.305,0.5 2.9,0.5 L14.5,0.5 Z M13.05,10.65 L21.025,10.65 L13.05,2.675 L13.05,10.65 Z M14.8306345,17.881563 C14.9525241,17.7998052 15.0731306,17.7243365 15.1860389,17.6413209 C16.1085505,16.991032 16.469087,16.0929542 16.3407822,15.0124936 C16.2124774,13.9546736 15.5709533,13.269166 14.6099502,12.8641505 C14.0807066,12.6360526 13.509823,12.515393 12.9317232,12.5094475 C11.4639161,12.5031585 9.98584454,12.4956116 8.51290522,12.5031585 C7.72383058,12.5069319 7.35816185,12.8528302 7.35816185,13.6075175 C7.35474039,16.6430374 7.36072794,19.6777187 7.37612452,22.7115614 C7.37997367,23.4662487 7.75847288,23.8435923 8.52188656,23.8435923 C10.1013189,23.8511392 11.6820342,23.8561705 13.2614666,23.8234673 C14.0519811,23.8158347 14.8274419,23.6106304 15.5144992,23.2272644 C16.5768631,22.620999 17.054157,21.710343 16.9951368,20.5103903 C16.9438149,19.380875 16.3292348,18.6563752 15.3271742,18.1859535 C15.1603779,18.1079692 14.9525241,18.089102 14.8306345,17.881563 Z M11.914266,27.4962787 C13.1960311,27.4962787 14.4765132,27.5025677 15.7582784,27.4987943 C16.4998802,27.4975365 16.8847947,27.1843413 16.8847947,26.6007164 C16.8822286,26.0472791 16.5037293,25.7441464 15.7865054,25.7441464 C13.2281073,25.7441464 10.6658601,25.7441464 8.0997637,25.7441464 C7.42488035,25.7454042 7.00917274,26.0787244 7.0001914,26.6082633 C6.98992702,27.1742788 7.39280415,27.4962787 8.13568905,27.4962787 C9.39564237,27.4962787 10.6555957,27.4962787 11.914266,27.4962787 Z M11.410028,22.0876866 C10.877563,22.0876866 10.343815,22.0713351 9.81134999,22.0876866 C9.47262527,22.1015226 9.30454595,22.0285695 9.31737643,21.6474524 C9.34175435,20.8927652 9.32635777,20.1380779 9.31737643,19.3896797 C9.31737643,19.1683048 9.31737643,18.9494455 9.625308,18.9582502 C10.9648103,18.9959845 12.3197092,18.8148596 13.6438149,19.0739689 C14.6984805,19.2789922 15.2091337,20.1129217 14.8768242,21.0172886 C14.6099502,21.7468196 13.9620109,21.9858039 13.2614666,22.0512101 C12.6481695,22.1078116 12.0258912,22.0625304 11.4074619,22.0625304 L11.410028,22.0876866 Z M11.2380996,14.2892516 C11.7513189,14.2892516 12.2645381,14.2590642 12.7713422,14.2892516 C13.7105334,14.3571735 14.2635272,14.842689 14.311,15.578509 C14.3610389,16.4589775 13.9260855,16.9973211 12.9625163,17.1822195 C11.8667932,17.3935319 10.7543904,17.2451101 9.64968592,17.2866179 C9.3776797,17.2979382 9.33148996,17.1407117 9.33148996,16.9306571 C9.33148996,16.1583604 9.33148996,15.3860638 9.32507472,14.6137672 C9.32507472,14.3370485 9.44568125,14.2490017 9.70998918,14.2540329 C10.2232085,14.2640954 10.7364277,14.2540329 11.249647,14.2540329 L11.2380996,14.2892516 Z"
            id="Combined-Shape" fill="#222222"></path>
    </g>
</svg>
